/* XPM */
static char * cyan_xpm[] = {
"38 38 87 1",
" 	c None",
".	c #1C5454",
"+	c #1F5D5D",
"@	c #246464",
"#	c #2E6D6D",
"$	c #347272",
"%	c #3A7878",
"&	c #2C6B6B",
"*	c #468282",
"=	c #6EA0A0",
"-	c #669A9A",
";	c #649999",
">	c #629898",
",	c #619797",
"'	c #699D9D",
")	c #266666",
"!	c #1D5757",
"~	c #153F3F",
"{	c #296969",
"]	c #7EACAC",
"^	c #679B9B",
"/	c #6C9F9F",
"(	c #73A4A4",
"_	c #77A7A7",
":	c #5E9494",
"<	c #78A8A8",
"[	c #437F7F",
"}	c #194D4D",
"|	c #143D3D",
"1	c #256565",
"2	c #7AA9A9",
"3	c #71A3A3",
"4	c #6B9E9E",
"5	c #5F9595",
"6	c #1E5B5B",
"7	c #154040",
"8	c #236363",
"9	c #75A5A5",
"0	c #1A4F4F",
"a	c #276767",
"b	c #5C9393",
"c	c #2B6A6A",
"d	c #164343",
"e	c #216161",
"f	c #599191",
"g	c #7CAAAA",
"h	c #4C8686",
"i	c #1A5050",
"j	c #4F8989",
"k	c #589090",
"l	c #568E8E",
"m	c #70A2A2",
"n	c #4D8787",
"o	c #1D5858",
"p	c #1B5353",
"q	c #528B8B",
"r	c #548D8D",
"s	c #4A8585",
"t	c #417D7D",
"u	c #1E5A5A",
"v	c #1C5656",
"w	c #3E7B7B",
"x	c #478383",
"y	c #538C8C",
"z	c #458181",
"A	c #226262",
"B	c #508A8A",
"C	c #427E7E",
"D	c #3B7979",
"E	c #387676",
"F	c #3D7A7A",
"G	c #306F6F",
"H	c #3F7C7C",
"I	c #1F5E5E",
"J	c #367474",
"K	c #357373",
"L	c #317070",
"M	c #337171",
"N	c #2F6E6E",
"O	c #2D6C6C",
"P	c #286868",
"Q	c #206060",
"R	c #194B4B",
"S	c #1B5151",
"T	c #184949",
"U	c #184848",
"V	c #194C4C",
"                                      ",
"                                      ",
"                                      ",
"                                      ",
"               .++@#$%&               ",
"             %*=-;>,>'=-)!            ",
"           ~{,]^'/(__/;:<[}           ",
"          |123;3/4^--'4=;<567         ",
"         ~8</-9^////4'44;9//07        ",
"        7a>';4=/'''^^---''b=^c6       ",
"       de4<b--b';;;;,>,,b-^fghie      ",
"      }!j=;k':j;::::bbbblfmnl-co      ",
"      p{bqhlblrflrrrrrllbslkhktu!     ",
"     v6wqxylxjfshhhnnhhhsqzjqh[Ai     ",
"     0A[xxBntzht[[C[[[[zDjztCxCep)    ",
"    iavwzwEDC%%zFFFFwwwFzGwz$%H1I0    ",
"    &8I%EEJEJJJJEEJJJJJKLJKGLEL1pv    ",
"    1I+MLGGLG###NGNN###N&GNcOG&e.p    ",
"    uuI{c{{{PPPP{{PPPPPP){P)){1+ppQ   ",
"    }oe8))1@@@@8@@@@8@@@8@188@8+vp6   ",
"    Rv86eeeeeIQIQIIQQQeQQeeIQQ+o!S    ",
"    ivAvouuu!uo!!!!!!oououuo!ovvp}    ",
"    +!Apvvvvvpppvvvv.vvvvvvvvvv.vT    ",
"    86@vv!!vv.p.vvv.vvvvvvv!!vv.!U    ",
"     @+v6vv!uvppvv.vvvvv.+!v!!v.R     ",
"     @S8i6ev.v!ov..vv!vv!!v!IvpeR     ",
"      e++!.vvvv!..vvv!vv!v!ov.6Vp     ",
"      O!I!p.ouv.v.vv!!vvv!!vv!u}      ",
"       !}+eppo+vvv.vvvvv!e.p1RV       ",
"        vuVvu..+vvv.vvvv!vv!RVI       ",
"         Qp!Qpp!!!vvvvv!!p+I}+        ",
"          &!}+A.!!!vvvv.p@}V          ",
"            8ii8!!!v.p.p}RS           ",
"              IpiiiSvv}T              ",
"                                      ",
"                                      ",
"                                      ",
"                                      "};
