/* XPM */
static char * pion1_xpm[] = {
"40 40 272 2",
"  	c None",
". 	c #000000",
"+ 	c #C20909",
"@ 	c #C80B0B",
"# 	c #CE0E0E",
"$ 	c #D41212",
"% 	c #DA1717",
"& 	c #DF1C1C",
"* 	c #DF1D1D",
"= 	c #D71919",
"- 	c #C10909",
"; 	c #C60A0A",
"> 	c #C90B0B",
", 	c #CD0E0E",
"' 	c #D21111",
") 	c #D91717",
"! 	c #E21E1E",
"~ 	c #EC2727",
"{ 	c #F73131",
"] 	c #FF3B3B",
"^ 	c #FF4444",
"/ 	c #E73232",
"( 	c #C10808",
"_ 	c #C30909",
": 	c #C90C0C",
"< 	c #CE1010",
"[ 	c #D51515",
"} 	c #DE1C1C",
"| 	c #E92626",
"1 	c #F73333",
"2 	c #FF4040",
"3 	c #FF4E4E",
"4 	c #FF5959",
"5 	c #FF6060",
"6 	c #FD6060",
"7 	c #BC0808",
"8 	c #BE0808",
"9 	c #C00808",
"0 	c #C60B0B",
"a 	c #CA0E0E",
"b 	c #D01212",
"c 	c #D81919",
"d 	c #E42424",
"e 	c #F43232",
"f 	c #FF4343",
"g 	c #FF5555",
"h 	c #FF6666",
"i 	c #FF7373",
"j 	c #FF7A7A",
"k 	c #FF7B7B",
"l 	c #FF7575",
"m 	c #DC3737",
"n 	c #BB0808",
"o 	c #BD0808",
"p 	c #BF0909",
"q 	c #C20A0A",
"r 	c #C60C0C",
"s 	c #CB0F0F",
"t 	c #D21515",
"u 	c #DD1F1F",
"v 	c #ED2D2D",
"w 	c #FF3F3F",
"x 	c #FF5656",
"y 	c #FF6E6E",
"z 	c #FF8383",
"A 	c #FF9191",
"B 	c #FF9797",
"C 	c #FF9494",
"D 	c #FF8989",
"E 	c #FF7979",
"F 	c #B90808",
"G 	c #CB1111",
"H 	c #D51818",
"I 	c #E22525",
"J 	c #F63737",
"K 	c #FF5050",
"L 	c #FF6C6C",
"M 	c #FF8A8A",
"N 	c #FFA2A2",
"O 	c #FFB1B1",
"P 	c #FFB4B4",
"Q 	c #FFACAC",
"R 	c #FF9B9B",
"S 	c #FF8585",
"T 	c #FD6C6C",
"U 	c #B90707",
"V 	c #B80707",
"W 	c #BA0808",
"X 	c #BE0909",
"Y 	c #C10A0A",
"Z 	c #C50D0D",
"` 	c #CC1212",
" .	c #D71C1C",
"..	c #E82B2B",
"+.	c #FF4242",
"@.	c #FFA6A6",
"#.	c #FFC0C0",
"$.	c #FFCECE",
"%.	c #FFCDCD",
"&.	c #FFBEBE",
"*.	c #FFA7A7",
"=.	c #FF8C8C",
"-.	c #FF7171",
";.	c #E73B3B",
">.	c #B60707",
",.	c #B70707",
"'.	c #BD0909",
").	c #C00A0A",
"!.	c #C50E0E",
"~.	c #CD1414",
"{.	c #D91F1F",
"].	c #EC3131",
"^.	c #FF4C4C",
"/.	c #FF6F6F",
"(.	c #FFBDBD",
"_.	c #FFD7D7",
":.	c #FFE2E2",
"<.	c #FFDBDB",
"[.	c #FFC7C7",
"}.	c #FFAAAA",
"|.	c #FF8B8B",
"1.	c #FF5454",
"2.	c #B80808",
"3.	c #B50707",
"4.	c #BC0909",
"5.	c #C40E0E",
"6.	c #CC1414",
"7.	c #D92020",
"8.	c #EF3434",
"9.	c #FF5252",
"0.	c #FF7878",
"a.	c #FFA3A3",
"b.	c #FFC9C9",
"c.	c #FFE1E1",
"d.	c #FFE8E8",
"e.	c #FFDCDC",
"f.	c #FFC3C3",
"g.	c #FF8282",
"h.	c #FF6565",
"i.	c #DC1F1F",
"j.	c #B40707",
"k.	c #B70808",
"l.	c #BB0909",
"m.	c #BE0A0A",
"n.	c #C30E0E",
"o.	c #CB1414",
"p.	c #D82020",
"q.	c #EE3434",
"r.	c #FFC5C5",
"s.	c #FFDADA",
"t.	c #FFCCCC",
"u.	c #FF7272",
"v.	c #FF5757",
"w.	c #FF4141",
"x.	c #E82525",
"y.	c #B20707",
"z.	c #B30707",
"A.	c #B60808",
"B.	c #BA0909",
"C.	c #BD0A0A",
"D.	c #C10D0D",
"E.	c #C91313",
"F.	c #D51E1E",
"G.	c #E93030",
"H.	c #FF4B4B",
"I.	c #FF9292",
"J.	c #FFB0B0",
"K.	c #FFAEAE",
"L.	c #FF9595",
"M.	c #FF5E5E",
"N.	c #FF4747",
"O.	c #FA3535",
"P.	c #E72525",
"Q.	c #AF0707",
"R.	c #BC0A0A",
"S.	c #BF0C0C",
"T.	c #C61111",
"U.	c #D01A1A",
"V.	c #E12929",
"W.	c #F83F3F",
"X.	c #FF5B5B",
"Y.	c #FF8F8F",
"Z.	c #FF9A9A",
"`.	c #FF8888",
" +	c #FF5D5D",
".+	c #FF4848",
"++	c #FA3737",
"@+	c #ED2929",
"#+	c #E11F1F",
"$+	c #B10707",
"%+	c #BD0B0B",
"&+	c #C20F0F",
"*+	c #CA1515",
"=+	c #D72121",
"-+	c #E83131",
";+	c #FE4545",
">+	c #FF6969",
",+	c #FF7070",
"'+	c #FF6D6D",
")+	c #FF6262",
"!+	c #FF5353",
"~+	c #F53535",
"{+	c #EA2929",
"]+	c #D91818",
"^+	c #B00707",
"/+	c #B80909",
"(+	c #BB0A0A",
"_+	c #C51111",
":+	c #CD1818",
"<+	c #D92323",
"[+	c #E73030",
"}+	c #F53D3D",
"|+	c #FF4949",
"1+	c #FE4242",
"2+	c #F63838",
"3+	c #ED2E2E",
"4+	c #E42525",
"5+	c #DD1D1D",
"6+	c #D81717",
"7+	c #D11212",
"8+	c #B50808",
"9+	c #B90909",
"0+	c #BC0B0B",
"a+	c #C00D0D",
"b+	c #C61212",
"c+	c #D62020",
"d+	c #DE2727",
"e+	c #E52C2C",
"f+	c #E82F2F",
"g+	c #E82E2E",
"h+	c #E52A2A",
"i+	c #E12525",
"j+	c #D71A1A",
"k+	c #D31515",
"l+	c #D01111",
"m+	c #C90D0D",
"n+	c #AE0707",
"o+	c #C41111",
"p+	c #C91515",
"q+	c #CE1818",
"r+	c #D21B1B",
"s+	c #D51D1D",
"t+	c #D51C1C",
"u+	c #D41B1B",
"v+	c #D21818",
"w+	c #D01515",
"x+	c #CE1212",
"y+	c #CC0F0F",
"z+	c #CB0D0D",
"A+	c #C30A0A",
"B+	c #AD0707",
"C+	c #BE0C0C",
"D+	c #C10E0E",
"E+	c #C41010",
"F+	c #C71111",
"G+	c #C91212",
"H+	c #C91111",
"I+	c #C91010",
"J+	c #C80F0F",
"K+	c #C80D0D",
"L+	c #C70C0C",
"M+	c #C70B0B",
"N+	c #BE0B0B",
"O+	c #C00C0C",
"P+	c #C20D0D",
"Q+	c #C30C0C",
"R+	c #C30B0B",
"S+	c #C40A0A",
"T+	c #AC0707",
"U+	c #BF0A0A",
"V+	c #C00909",
"W+	c #B40808",
"                                      . .                                       ",
"                                      . .                                       ",
"                                      . .                                       ",
"                                      . .                                       ",
"                                      . .                                       ",
"                                      . .                                       ",
"                                      . .                                       ",
"                                      . .                                       ",
"                                + @ # $ % & * =                                 ",
"                            - ; > , ' ) ! ~ { ] ^ /                             ",
"                          ( _ ; : < [ } | 1 2 3 4 5 6                           ",
"                      7 8 9 _ 0 a b c d e f g h i j k l m                       ",
"                      n o p q r s t u v w x y z A B C D E                       ",
"                    F n o p q r G H I J K L M N O P Q R S T                     ",
"                  U V W 7 X Y Z `  ...+.5 z @.#.$.%.&.*.=.-.;.                  ",
"                  >.,.F n '.).!.~.{.].^./.B (._.:.<.[.}.|.y 1.                  ",
"                2.3.,.2.W 4.).5.6.7.8.9.0.a.b.c.d.e.f.a.g.h.^.i.                ",
"                3.j.>.k.F l.m.n.o.p.q.9.0.N r.s.<.t.O A u.v.w.x.                ",
"                y.z.3.A.2.B.C.D.E.F.G.H.y I.J.#.&.K.L.0.M.N.O.P.                ",
". . . . . . . . Q.y.j.3.k.F R.S.T.U.V.W.X.0.Y.Z.B `.i  +.+++@+#+. . . . . . . . ",
". . . . . . . . Q.$+z.j.A.2.B.%+&+*+=+-+;+4 >+,+'+)+!+f ~+{+#+]+. . . . . . . . ",
"                Q.^+y.z.3.A./+(+S._+:+<+[+}+N.H.|+1+2+3+4+5+6+7+                ",
"                y.Q.$+y.j.8+k.9+0+a+b+:+c+d+e+f+g+h+i+i.j+k+l+m+                ",
"                8+n+^+$+y.j.8+k.9+0+a+o+p+q+r+s+t+u+v+w+x+y+z+A+                ",
"                  B+n+^+$+y.j.8+k.9+R.C+D+E+F+G+G+H+I+J+K+L+M+                  ",
"                  y.B+Q.^+$+z.j.8+k.9+(+%+N+O+D.P+Q+Q+R+R+S+-                   ",
"                    T+B+Q.^+$+y.j.8+A.2.9+l.R.C.m.U+U+V+V+-                     ",
"                      T+n+Q.^+$+y.z.8+A.k.2.F W l.4.o o 8                       ",
"                      W+T+B+Q.^+$+y.z.j.8+A.k.2.F W n n 7                       ",
"                          T+B+n+Q.$+y.z.j.3.>.>.k.2.F                           ",
"                            y.B+n+Q.^+$+y.z.j.3.>.V                             ",
"                                8+y.^+Q.^+y.3.2.                                ",
"                                      . .                                       ",
"                                      . .                                       ",
"                                      . .                                       ",
"                                      . .                                       ",
"                                      . .                                       ",
"                                      . .                                       ",
"                                      . .                                       ",
"                                      . .                                       "};
