/* XPM */
static char * pion2_xpm[] = {
"40 40 287 2",
"  	c None",
". 	c #000000",
"+ 	c #1B820A",
"@ 	c #1E870C",
"# 	c #218B0F",
"$ 	c #269213",
"% 	c #2B9718",
"& 	c #2F9C1D",
"* 	c #309C1E",
"= 	c #2C961A",
"- 	c #1B810A",
"; 	c #1C850B",
"> 	c #1E880C",
", 	c #259012",
"' 	c #2A9618",
") 	c #319E1F",
"! 	c #3AA828",
"~ 	c #45B332",
"{ 	c #4FBE3C",
"] 	c #58C845",
"^ 	c #46B233",
"/ 	c #1B8109",
"( 	c #1C830A",
"_ 	c #1D850B",
": 	c #1F880D",
"< 	c #238C11",
"[ 	c #289316",
"} 	c #309B1D",
"| 	c #3AA627",
"1 	c #46B434",
"2 	c #54C242",
"3 	c #62D04F",
"4 	c #6DDC5A",
"5 	c #74E461",
"6 	c #75E562",
"7 	c #1A7E09",
"8 	c #1A7F09",
"9 	c #1E850C",
"0 	c #20890F",
"a 	c #258E13",
"b 	c #2C971A",
"c 	c #37A225",
"d 	c #45B133",
"e 	c #56C344",
"f 	c #69D656",
"g 	c #7AE867",
"h 	c #87F674",
"i 	c #8EFE7B",
"j 	c #8FFF7C",
"k 	c #89FA76",
"l 	c #4AB438",
"m 	c #1B800A",
"n 	c #1C830B",
"o 	c #1E860D",
"p 	c #228A10",
"q 	c #289116",
"r 	c #329B20",
"s 	c #40AA2E",
"t 	c #53BE41",
"u 	c #69D657",
"v 	c #81EE6F",
"w 	c #96FF84",
"x 	c #A5FF92",
"y 	c #ABFF98",
"z 	c #A8FF95",
"A 	c #9DFF8A",
"B 	c #8DFE7A",
"C 	c #197C08",
"D 	c #1A7D09",
"E 	c #1C820B",
"F 	c #1F860D",
"G 	c #238B12",
"H 	c #2B9419",
"I 	c #38A126",
"J 	c #63CE51",
"K 	c #80EB6D",
"L 	c #9DFF8B",
"M 	c #B6FFA3",
"N 	c #C5FFB2",
"O 	c #C8FFB5",
"P 	c #C0FFAD",
"Q 	c #AFFF9C",
"R 	c #9AFF87",
"S 	c #80F06D",
"T 	c #197B08",
"U 	c #1D820B",
"V 	c #1F860E",
"W 	c #258C13",
"X 	c #2E961D",
"Y 	c #3EA72C",
"Z 	c #55BF43",
"` 	c #73DE61",
" .	c #97FF84",
"..	c #B9FFA7",
"+.	c #D4FFC1",
"@.	c #E1FFCF",
"#.	c #E0FFCE",
"$.	c #D2FFBF",
"%.	c #BBFFA8",
"&.	c #A0FF8D",
"*.	c #85F572",
"=.	c #4FBB3C",
"-.	c #197A08",
";.	c #197C09",
">.	c #1B7F0A",
",.	c #20860F",
"'.	c #268D15",
").	c #319920",
"!.	c #43AC32",
"~.	c #5EC84D",
"{.	c #82EC70",
"].	c #AAFF98",
"^.	c #D0FFBE",
"/.	c #EBFFD8",
"(.	c #F5FFE3",
"_.	c #EFFFDC",
":.	c #DBFFC8",
"<.	c #BEFFAB",
"[.	c #9FFF8C",
"}.	c #82F16F",
"|.	c #68D855",
"1.	c #197B09",
"2.	c #197908",
"3.	c #1D810B",
"4.	c #20850F",
"5.	c #278D15",
"6.	c #339A21",
"7.	c #47AE35",
"8.	c #64CD53",
"9.	c #8BF479",
"0.	c #B6FFA4",
"a.	c #DCFFCA",
"b.	c #F5FFE2",
"c.	c #FBFFE9",
"d.	c #EFFFDD",
"e.	c #D6FFC4",
"f.	c #96FF83",
"g.	c #79E766",
"h.	c #60CF4D",
"i.	c #329C20",
"j.	c #1A7C09",
"k.	c #1B7E0A",
"l.	c #1C800B",
"m.	c #268C15",
"n.	c #329921",
"o.	c #64CC53",
"p.	c #B5FFA3",
"q.	c #D8FFC6",
"r.	c #EDFFDB",
"s.	c #DFFFCD",
"t.	c #C4FFB2",
"u.	c #86F373",
"v.	c #6BD958",
"w.	c #55C342",
"x.	c #38A427",
"y.	c #187708",
"z.	c #187808",
"A.	c #1A7D0A",
"B.	c #1C7F0B",
"C.	c #1F830E",
"D.	c #258A14",
"E.	c #30961F",
"F.	c #43A931",
"G.	c #5EC54C",
"H.	c #81E96F",
"I.	c #A5FF93",
"J.	c #C3FFB1",
"K.	c #D3FFC1",
"L.	c #D1FFBF",
"M.	c #C1FFAF",
"N.	c #A8FF96",
"O.	c #8CF87A",
"P.	c #71DE5F",
"Q.	c #5BC848",
"R.	c #49B636",
"S.	c #38A426",
"T.	c #187508",
"U.	c #197808",
"V.	c #1B7E0B",
"W.	c #1E820D",
"X.	c #238712",
"Y.	c #2C911B",
"Z.	c #3CA12A",
"`.	c #52B841",
" +	c #6ED55C",
".+	c #8BF379",
"++	c #A2FF90",
"@+	c #ACFF9B",
"#+	c #9BFF89",
"$+	c #87F275",
"%+	c #70DC5E",
"&+	c #5CC849",
"*+	c #4AB738",
"=+	c #3DAA2B",
"-+	c #329E20",
";+	c #197A09",
">+	c #1A7B09",
",+	c #1B7D0A",
"'+	c #1D800C",
")+	c #218410",
"!+	c #288C16",
"~+	c #339822",
"{+	c #43A932",
"]+	c #57BE46",
"^+	c #6CD35A",
"/+	c #7CE36A",
"(+	c #83EB71",
"_+	c #80E96E",
":+	c #75DF63",
"<+	c #66D054",
"[+	c #56C144",
"}+	c #48B336",
"|+	c #3CA72A",
"1+	c #339E20",
"2+	c #2C9619",
"3+	c #187608",
"4+	c #1C7E0B",
"5+	c #1E810D",
"6+	c #2B8F19",
"7+	c #359A24",
"8+	c #42A831",
"9+	c #4FB63E",
"0+	c #59C048",
"a+	c #5DC54C",
"b+	c #5BC44A",
"c+	c #55BD43",
"d+	c #4BB539",
"e+	c #41AB2F",
"f+	c #38A226",
"g+	c #309B1E",
"h+	c #2A9518",
"i+	c #258F13",
"j+	c #197708",
"k+	c #197909",
"l+	c #1B7C0A",
"m+	c #1C7F0C",
"n+	c #1F820E",
"o+	c #248813",
"p+	c #2A8F19",
"q+	c #329721",
"r+	c #399F28",
"s+	c #3FA52D",
"t+	c #41A830",
"u+	c #40A82F",
"v+	c #3DA52B",
"w+	c #37A026",
"x+	c #2C961B",
"y+	c #289216",
"z+	c #248F12",
"A+	c #20880E",
"B+	c #1D7F0C",
"C+	c #238612",
"D+	c #278B16",
"E+	c #2B9019",
"F+	c #2E931C",
"G+	c #2F951E",
"H+	c #2F951D",
"I+	c #2D941C",
"J+	c #2A9219",
"K+	c #289016",
"L+	c #258D13",
"M+	c #228B11",
"N+	c #208A0F",
"O+	c #187408",
"P+	c #20840F",
"Q+	c #228611",
"R+	c #248812",
"S+	c #248A13",
"T+	c #248A12",
"U+	c #238911",
"V+	c #218810",
"W+	c #1F870D",
"X+	c #1E860C",
"Y+	c #1A7C0A",
"Z+	c #1D810C",
"`+	c #1F840E",
" @	c #1F840D",
".@	c #1E840D",
"+@	c #1E840C",
"@@	c #1D840C",
"#@	c #1D840B",
"$@	c #177308",
"%@	c #1B7F0B",
"&@	c #1C810B",
"*@	c #1C810A",
"=@	c #1A7E0A",
"-@	c #1B7F09",
"                                      . .                                       ",
"                                      . .                                       ",
"                                      . .                                       ",
"                                      . .                                       ",
"                                      . .                                       ",
"                                      . .                                       ",
"                                      . .                                       ",
"                                      . .                                       ",
"                                + @ # $ % & * =                                 ",
"                            - ; > # , ' ) ! ~ { ] ^                             ",
"                          / ( _ : < [ } | 1 2 3 4 5 6                           ",
"                      7 8 / ( 9 0 a b c d e f g h i j k l                       ",
"                      7 8 m n o p q r s t u v w x y z A B                       ",
"                    C D 7 m E F G H I l J K L M N O P Q R S                     ",
"                  T T D 7 m U V W X Y Z `  ...+.@.#.$.%.&.*.=.                  ",
"                  -.T ;.D >.U ,.'.).!.~.{.].^./.(._.:.<.[.}.|.                  ",
"                1.2.-.1.D >.3.4.5.6.7.8.9.0.a.b.c.d.e.0.f.g.h.i.                ",
"                2.2.-.1.j.k.l.4.m.n.7.o.9.p.q.r._.s.t.x u.v.w.x.                ",
"                y.z.2.-.1.A.B.C.D.E.F.G.H.I.J.K.L.M.N.O.P.Q.R.S.                ",
". . . . . . . . T.y.U.2.1.j.V.W.X.Y.Z.`. +.+++@+].#+$+%+&+*+=+-+. . . . . . . . ",
". . . . . . . . T.y.z.2.;+>+,+'+)+!+~+{+]+^+/+(+_+:+<+[+}+|+1+2+. . . . . . . . ",
"                3+3+y.z.2.;+j.4+5+X.6+7+8+9+0+a+b+c+d+e+f+g+h+i+                ",
"                j+T.3+y.U.k+>+l+m+n+o+p+q+r+s+t+u+v+w+r x+y+z+A+                ",
"                k+T.3+3+y.U.;+>+,+B+n+C+D+E+F+G+H+I+J+K+L+M+N+n                 ",
"                  O+T.3+y.z.2.;+>+,+B.5+P+Q+R+S+S+T+U+V+A+W+X+                  ",
"                  y.O+T.3+y.z.2.;+>+Y+V.m+Z+W.C.`+ @.@+@@@#@+                   ",
"                    $@O+T.3+y.z.U.k+;+>+A.k.%@B.l.&@&@*@- -                     ",
"                      $@O+T.3+y.y.U.k+;+1.j.j.D =@=@-@8 8                       ",
"                      k+$@O+T.3+3+y.z.2.2.;+1.1.j.D D 7 7                       ",
"                          $@O+T.T.3+y.z.U.2.-.-.1.1.;.                          ",
"                            y.O+T.T.3+y.y.z.U.2.-.T                             ",
"                                k+j+3+T.3+y.2.1.                                ",
"                                      . .                                       ",
"                                      . .                                       ",
"                                      . .                                       ",
"                                      . .                                       ",
"                                      . .                                       ",
"                                      . .                                       ",
"                                      . .                                       ",
"                                      . .                                       "};
