/* XPM */
static char * pion2_xpm[] = {
"50 50 518 2",
"  	c None",
". 	c #000000",
"+ 	c #72B368",
"@ 	c #3D952E",
"# 	c #1A7F09",
"$ 	c #1C850A",
"% 	c #1C870A",
"& 	c #1D880A",
"* 	c #1C820B",
"= 	c #3F9A2F",
"- 	c #75B86A",
"; 	c #6FAF64",
"> 	c #218610",
", 	c #1B8309",
"' 	c #1B8409",
") 	c #1B8509",
"! 	c #1C860A",
"~ 	c #1C880A",
"{ 	c #1D890B",
"] 	c #1E8A0B",
"^ 	c #1E8C0C",
"/ 	c #1F8D0C",
"( 	c #208F0D",
"_ 	c #21900E",
": 	c #289415",
"< 	c #74B968",
"[ 	c #74B169",
"} 	c #1A8009",
"| 	c #1A8109",
"1 	c #1B8209",
"2 	c #1D880B",
"3 	c #1E8B0C",
"4 	c #1F8D0D",
"5 	c #218F0E",
"6 	c #22910F",
"7 	c #239310",
"8 	c #249411",
"9 	c #259612",
"0 	c #279813",
"a 	c #7CBF70",
"b 	c #308A21",
"c 	c #1B850A",
"d 	c #1D870B",
"e 	c #1E890B",
"f 	c #1F8B0C",
"g 	c #208D0D",
"h 	c #218F0F",
"i 	c #239110",
"j 	c #259312",
"k 	c #269613",
"l 	c #289815",
"m 	c #299A16",
"n 	c #2A9C17",
"o 	c #2B9D18",
"p 	c #3FA42E",
"q 	c #1C7E0B",
"r 	c #1A7E09",
"s 	c #1F8A0C",
"t 	c #208C0E",
"u 	c #228F0F",
"v 	c #249111",
"w 	c #269514",
"x 	c #299816",
"y 	c #2B9B18",
"z 	c #2D9E1A",
"A 	c #2FA01C",
"B 	c #30A21D",
"C 	c #31A31E",
"D 	c #31A41E",
"E 	c #32A41F",
"F 	c #197C08",
"G 	c #197D09",
"H 	c #1B8109",
"I 	c #1B840A",
"J 	c #1E890C",
"K 	c #208B0E",
"L 	c #228E10",
"M 	c #259212",
"N 	c #289515",
"O 	c #2B9A19",
"P 	c #2F9E1C",
"Q 	c #32A21F",
"R 	c #35A522",
"S 	c #37A824",
"T 	c #39AA25",
"U 	c #39AC26",
"V 	c #38AC25",
"W 	c #37AB23",
"X 	c #1B7C0B",
"Y 	c #1B830A",
"Z 	c #1C840A",
"` 	c #1D860B",
" .	c #1E880C",
"..	c #208A0E",
"+.	c #259113",
"@.	c #299617",
"#.	c #2E9B1B",
"$.	c #33A120",
"%.	c #38A625",
"&.	c #3CAC29",
"*.	c #40B02D",
"=.	c #42B32F",
"-.	c #44B531",
";.	c #44B631",
">.	c #43B630",
",.	c #41B52E",
"'.	c #3FB22B",
").	c #3CAF28",
"!.	c #2F8720",
"~.	c #197B08",
"{.	c #1D860C",
"].	c #1F890D",
"^.	c #228C10",
"/.	c #2A9618",
"(.	c #309C1D",
"_.	c #36A424",
":.	c #3DAB2A",
"<.	c #44B331",
"[.	c #4AB937",
"}.	c #4FBF3B",
"|.	c #51C23E",
"1.	c #53C43F",
"2.	c #52C43F",
"3.	c #50C23C",
"4.	c #4CBF39",
"5.	c #48BC34",
"6.	c #43B830",
"7.	c #4EB53D",
"8.	c #74AE69",
"9.	c #197A08",
"0.	c #1C830A",
"a.	c #1D850B",
"b.	c #1E870D",
"c.	c #218B0F",
"d.	c #258F13",
"e.	c #2A9518",
"f.	c #309C1E",
"g.	c #39A526",
"h.	c #42AF2F",
"i.	c #4BBA39",
"j.	c #55C342",
"k.	c #5CCC49",
"l.	c #62D24F",
"m.	c #65D652",
"n.	c #63D54F",
"o.	c #5FD14B",
"p.	c #59CC46",
"q.	c #53C63F",
"r.	c #4CC038",
"s.	c #45BA32",
"t.	c #88CD7C",
"u.	c #197908",
"v.	c #1B820A",
"w.	c #20890E",
"x.	c #238D11",
"y.	c #289316",
"z.	c #309B1D",
"A.	c #39A527",
"B.	c #45B132",
"C.	c #51BF3F",
"D.	c #5FCD4C",
"E.	c #6BD958",
"F.	c #74E361",
"G.	c #7AEA67",
"H.	c #7DED69",
"I.	c #7BEC68",
"J.	c #77E863",
"K.	c #70E25C",
"L.	c #67DA54",
"M.	c #5ED24A",
"N.	c #55C941",
"O.	c #4CC139",
"P.	c #45BA31",
"Q.	c #6DAA63",
"R.	c #1B8009",
"S.	c #1C840B",
"T.	c #1E860D",
"U.	c #218A0F",
"V.	c #268F14",
"W.	c #2D971B",
"X.	c #37A225",
"Y.	c #44B032",
"Z.	c #54C042",
"`.	c #65D353",
" +	c #77E564",
".+	c #86F473",
"++	c #91FF7E",
"@+	c #97FF84",
"#+	c #98FF85",
"$+	c #94FF81",
"%+	c #8CFD78",
"&+	c #81F46E",
"*+	c #75E862",
"=+	c #69DD56",
"-+	c #5ED14A",
";+	c #53C73F",
">+	c #49BE35",
",+	c #84CC78",
"'+	c #1F7C0F",
")+	c #1D840B",
"!+	c #1F870E",
"~+	c #238C11",
"{+	c #299217",
"]+	c #329D20",
"^+	c #40AB2E",
"/+	c #51BD3F",
"(+	c #66D354",
"_+	c #7DEA6B",
":+	c #93FF80",
"<+	c #A5FF92",
"[+	c #B1FF9F",
"}+	c #B7FFA4",
"|+	c #B5FFA2",
"1+	c #ADFF9A",
"2+	c #A1FF8E",
"3+	c #92FF7F",
"4+	c #83F56F",
"5+	c #73E660",
"6+	c #65D851",
"7+	c #58CC44",
"8+	c #4DC139",
"9+	c #47B733",
"0+	c #187808",
"a+	c #1C820A",
"b+	c #1D840C",
"c+	c #20880E",
"d+	c #258D13",
"e+	c #2D961B",
"f+	c #38A226",
"g+	c #49B437",
"h+	c #60CB4E",
"i+	c #7AE668",
"j+	c #B1FF9E",
"k+	c #C5FFB3",
"l+	c #D2FFBF",
"m+	c #D5FFC2",
"n+	c #D0FFBD",
"o+	c #C4FFB0",
"p+	c #B3FFA0",
"q+	c #A0FF8D",
"r+	c #8DFF79",
"s+	c #7AED67",
"t+	c #6ADD56",
"u+	c #5BCF47",
"v+	c #4FC33B",
"w+	c #44B931",
"x+	c #70AB66",
"y+	c #197C09",
"z+	c #1A7D09",
"A+	c #1B800A",
"B+	c #1E840C",
"C+	c #21880F",
"D+	c #268F15",
"E+	c #30991E",
"F+	c #3EA82C",
"G+	c #52BD40",
"H+	c #6DD95B",
"I+	c #8DF97B",
"J+	c #AEFF9C",
"K+	c #CCFFB9",
"L+	c #E2FFCF",
"M+	c #EEFFDB",
"N+	c #E5FFD2",
"O+	c #D4FFC1",
"P+	c #BFFFAC",
"Q+	c #A8FF95",
"R+	c #7EF06A",
"S+	c #6BDE58",
"T+	c #5CCF48",
"U+	c #44B930",
"V+	c #85CB7A",
"W+	c #3A8A2C",
"X+	c #187708",
"Y+	c #218910",
"Z+	c #289016",
"`+	c #329B20",
" @	c #42AB30",
".@	c #59C347",
"+@	c #78E265",
"@@	c #9BFF89",
"#@	c #BFFFAD",
"$@	c #DFFFCC",
"%@	c #F5FFE2",
"&@	c #FFFFEC",
"*@	c #FCFFE9",
"=@	c #EFFFDC",
"-@	c #DBFFC8",
";@	c #C3FFB0",
">@	c #AAFF97",
",@	c #7CEF69",
"'@	c #6ADC56",
")@	c #5ACD46",
"!@	c #42B62F",
"~@	c #54B343",
"{@	c #177108",
"]@	c #1B7F0A",
"^@	c #1C810B",
"/@	c #228910",
"(@	c #339B21",
"_@	c #44AD32",
":@	c #5CC64A",
"<@	c #7CE66A",
"[@	c #A0FF8E",
"}@	c #E4FFD2",
"|@	c #F9FFE6",
"1@	c #FFFFEE",
"2@	c #FBFFE9",
"3@	c #ECFFD9",
"4@	c #D6FFC3",
"5@	c #BDFFAA",
"6@	c #A4FF91",
"7@	c #8CFD79",
"8@	c #77E963",
"9@	c #65D751",
"0@	c #55C842",
"a@	c #49BD36",
"b@	c #3FB32C",
"c@	c #339F20",
"d@	c #187508",
"e@	c #1B7F09",
"f@	c #1C810A",
"g@	c #218810",
"h@	c #278F16",
"i@	c #329A20",
"j@	c #5AC348",
"k@	c #78E266",
"l@	c #BDFFAB",
"m@	c #DAFFC8",
"n@	c #ECFFDA",
"o@	c #F2FFDF",
"p@	c #DCFFC9",
"q@	c #C7FFB4",
"r@	c #AFFF9C",
"s@	c #81F26E",
"t@	c #6DDF5A",
"u@	c #5DCF49",
"v@	c #4FC23C",
"w@	c #44B731",
"x@	c #3BAF28",
"y@	c #33A520",
"z@	c #1D830C",
"A@	c #20870F",
"B@	c #268D14",
"C@	c #2F971E",
"D@	c #3EA72C",
"E@	c #53BC41",
"F@	c #6DD75B",
"G@	c #8CF67A",
"H@	c #C2FFB0",
"I@	c #D1FFBF",
"J@	c #D5FFC3",
"K@	c #CFFFBC",
"L@	c #C1FFAE",
"M@	c #AEFF9B",
"N@	c #99FF86",
"O@	c #85F572",
"P@	c #72E35F",
"Q@	c #61D24E",
"R@	c #53C540",
"S@	c #48BA34",
"T@	c #3EB12B",
"U@	c #37AA23",
"V@	c #31A31D",
"W@	c #187608",
"X@	c #1D820B",
"Y@	c #1F860E",
"Z@	c #248B13",
"`@	c #2C931A",
" #	c #38A026",
".#	c #48B137",
"+#	c #5EC84C",
"@#	c #76E164",
"##	c #8EF97C",
"$#	c #A1FF8F",
"%#	c #ADFF9B",
"&#	c #ACFF99",
"*#	c #81F06E",
"=#	c #71E05E",
"-#	c #54C541",
";#	c #49BA36",
">#	c #40B12C",
",#	c #38AA25",
"'#	c #32A51F",
")#	c #2C9E19",
"!#	c #1E840D",
"~#	c #228810",
"{#	c #288F16",
"]#	c #31991F",
"^#	c #3DA62B",
"/#	c #4DB73B",
"(#	c #5FC94D",
"_#	c #71DB5F",
":#	c #7FEA6D",
"<#	c #88F476",
"[#	c #8BF778",
"}#	c #87F575",
"|#	c #80ED6D",
"1#	c #75E362",
"2#	c #69D856",
"3#	c #5DCC4A",
"4#	c #51C13E",
"5#	c #47B834",
"6#	c #3FB02C",
"7#	c #38A925",
"8#	c #2EA01A",
"9#	c #269214",
"0#	c #39882C",
"a#	c #20860E",
"b#	c #248B12",
"c#	c #2A9219",
"d#	c #4AB438",
"e#	c #56C044",
"f#	c #67D254",
"g#	c #69D557",
"h#	c #67D455",
"i#	c #62D050",
"j#	c #5BC949",
"k#	c #53C240",
"l#	c #4BBA38",
"m#	c #43B330",
"n#	c #36A623",
"o#	c #31A21E",
"p#	c #2A9B16",
"q#	c #46A335",
"r#	c #6FAA66",
"s#	c #21870F",
"t#	c #258C13",
"u#	c #2B9219",
"v#	c #39A328",
"w#	c #41AB2F",
"x#	c #48B236",
"y#	c #4CB83A",
"z#	c #4EBA3C",
"A#	c #4EBA3B",
"B#	c #4BB839",
"C#	c #47B434",
"D#	c #42B02F",
"E#	c #33A220",
"F#	c #2F9F1C",
"G#	c #2B9C18",
"H#	c #289915",
"I#	c #269713",
"J#	c #78BD6D",
"K#	c #248C13",
"L#	c #299117",
"M#	c #2E961C",
"N#	c #329C20",
"O#	c #37A125",
"P#	c #3AA428",
"Q#	c #3BA629",
"R#	c #3BA729",
"S#	c #3AA627",
"T#	c #38A525",
"U#	c #35A222",
"V#	c #32A01F",
"W#	c #2F9D1C",
"X#	c #2C9B19",
"Y#	c #279714",
"Z#	c #259512",
"`#	c #239410",
" $	c #1E790F",
".$	c #1B810A",
"+$	c #1E850D",
"@$	c #238B11",
"#$	c #268E14",
"$$	c #2B9519",
"%$	c #2E991C",
"&$	c #2F9A1C",
"*$	c #2E9A1C",
"=$	c #2D991B",
"-$	c #2C9819",
";$	c #2A9717",
">$	c #289615",
",$	c #259412",
"'$	c #22920F",
")$	c #279315",
"!$	c #6CA863",
"~$	c #21890F",
"{$	c #248D12",
"]$	c #269014",
"^$	c #279114",
"/$	c #279214",
"($	c #259213",
"_$	c #249112",
":$	c #239010",
"<$	c #22900F",
"[$	c #72B767",
"}$	c #1E850C",
"|$	c #1F870D",
"1$	c #228D10",
"2$	c #228D0F",
"3$	c #218D0F",
"4$	c #208D0E",
"5$	c #73AB68",
"6$	c #187908",
"7$	c #1C830B",
"8$	c #1E870C",
"9$	c #1F880D",
"0$	c #1F8A0D",
"a$	c #1E8B0B",
"b$	c #77B86B",
"c$	c #2E8320",
"d$	c #339422",
"e$	c #1A770A",
"f$	c #1F890C",
"g$	c #1E860C",
"h$	c #2E8420",
"i$	c #197D08",
"j$	c #318F21",
"k$	c #73AC69",
"l$	c #75B36A",
"m$	c #6DA963",
"n$	c #218310",
"o$	c #70AC66",
"p$	c #3A8C2D",
"q$	c #187408",
"r$	c #3B8F2D",
"s$	c #71AF67",
"                                              . . . . .                                             ",
"                                              . . . . .                                             ",
"                                              . . . . .                                             ",
"                                              . . . . .                                             ",
"                                              . . . . .                                             ",
"                                              . . . . .                                             ",
"                                              . . . . .                                             ",
"                                              . . . . .                                             ",
"                                          + @ # $ % & * = -                                         ",
"                                    ; > , ' ) ! ~ { ] ^ / ( _ : <                                   ",
"                                [ } | 1 , ' $ % 2 ] 3 4 5 6 7 8 9 0 a                               ",
"                              b # } | 1 , c ! d e f g h i j k l m n o p                             ",
"                            q r # } | 1 ' $ ! 2 s t u v w x y z A B C D E                           ",
"                          F G r # } H 1 I $ d J K L M N O P Q R S T U U V W                         ",
"                        X F G r # } H Y Z `  ...L +.@.#.$.%.&.*.=.-.;.>.,.'.).                      ",
"                      !.~.F G r # } H Y Z {.].^.+./.(._.:.<.[.}.|.1.2.3.4.5.6.7.                    ",
"                    8.9.~.F G r # } 1 0.a.b.c.d.e.f.g.h.i.j.k.l.m.m.n.o.p.q.r.s.t.                  ",
"                    u.9.~.F G r # } v.0.{.w.x.y.z.A.B.C.D.E.F.G.H.I.J.K.L.M.N.O.P.                  ",
"                  Q.u.9.~.F G r # R.v.S.T.U.V.W.X.Y.Z.`. +.+++@+#+$+%+&+*+=+-+;+>+,+                ",
"                  '+u.9.~.F G r # R.v.)+!+~+{+]+^+/+(+_+:+<+[+}+|+1+2+3+4+5+6+7+8+9+                ",
"                  0+u.9.~.F G r # R.a+b+c+d+e+f+g+h+i+@+j+k+l+m+n+o+p+q+r+s+t+u+v+w+                ",
"                x+0+0+u.9.~.y+z+# A+a+B+C+D+E+F+G+H+I+J+K+L+M+M+N+O+P+Q+3+R+S+T+v+U+V+              ",
"                W+X+0+u.9.~.y+z+r A+* B+Y+Z+`+ @.@+@@@#@$@%@&@*@=@-@;@>@3+,@'@)@8+!@~@              ",
". . . . . . . . {@X+0+u.9.~.F z+r ]@^@B+/@Z+(@_@:@<@[@k+}@|@1@2@3@4@5@6@7@8@9@0@a@b@c@. . . . . . . ",
". . . . . . . . d@X+0+u.9.~.F z+r e@f@B+g@h@i@ @j@k@@@l@m@n@o@3@p@q@r@@+s@t@u@v@w@x@y@. . . . . . . ",
". . . . . . . . d@X+0+0+u.9.~.y+z+# A+z@A@B@C@D@E@F@G@>@H@I@J@K@L@M@N@O@P@Q@R@S@T@U@V@. . . . . . . ",
". . . . . . . . d@W@X+0+u.9.~.y+z+r A+X@Y@Z@`@ #.#+#@###$#%#j+&#2+3+*#=#Q@-#;#>#,#'#)#. . . . . . . ",
". . . . . . . . {@W@X+0+u.9.~.y+z+r ]@^@!#~#{#]#^#/#(#_#:#<#[#}#|#1#2#3#4#5#6#7#E 8#9#. . . . . . . ",
"                0#W@X+0+0+u.9.~.y+z+# A+z@a#b#c#(@D@d#e#h+f#g#h#i#j#k#l#m#&.n#o#z p#q#              ",
"                r#d@W@X+0+u.9.~.y+z+r ]@^@!#s#t#u#i@v#w#x#y#z#A#B#C#D#:.%.E#F#G#H#I#J#              ",
"                  d@W@X+0+u.u.9.~.y+z+# A+* !#C+K#L#M#N#O#P#Q#R#S#T#U#V#W#X#x Y#Z#`#                ",
"                   $W@W@X+0+u.9.~.y+z+r e@.$X@+$A@@$#${+$$W.%$&$*$=$-$;$>$w ,$7 '$)$                ",
"                  !$d@W@X+0+u.u.9.~.y+z+r ]@.$* B+Y@~$@${$d.]$^$/$9#($_$v :$<$5 ( [$                ",
"                    d@W@W@X+0+u.9.~.F G z+r A+.$* )+}$|$w.U.c.^.1$2$3$3$4$g g / /                   ",
"                    5$d@W@X+0+6$u.9.~.y+z+r # R..$a+7$)+{.8$ .9$].0$0$s 3 3 3 a$b$                  ",
"                      c$W@W@X+0+u.9.9.~.y+z+r # } H v.0.Z S.a.` d d 2 2 { { { d$                    ",
"                        e$W@X+0+0+u.9.~.F y+z+r # } H H v.Y Z Z $ ! ! % % ~ f$                      ",
"                          d@W@X+0+6$u.9.~.F y+z+r # } } H 1 , , I I $ ! ! %                         ",
"                            e$W@X+0+u.9.9.~.F G z+r # } } | 1 1 , , ' ) g$                          ",
"                              h$X+X+0+u.9.9.~.F i$z+r # # } | | 1 1 , j$                            ",
"                                k$X+0+0+u.9.~.~.F i$G r # # } } | 1 l$                              ",
"                                    m$'+0+u.9.~.~.F i$G r r # n$;                                   ",
"                                          o$p$q$9.9.~.X+r$s$                                        ",
"                                              . . . . .                                             ",
"                                              . . . . .                                             ",
"                                              . . . . .                                             ",
"                                              . . . . .                                             ",
"                                              . . . . .                                             ",
"                                              . . . . .                                             ",
"                                              . . . . .                                             "};
