/* XPM */
static char * white_xpm[] = {
"38 38 124 2",
"  	c None",
". 	c #848484",
"+ 	c #909090",
"@ 	c #979797",
"# 	c #A3A3A3",
"$ 	c #ACACAC",
"% 	c #B4B4B4",
"& 	c #A6A6A6",
"* 	c #ADADAD",
"= 	c #BBBBBB",
"- 	c #E7E7E7",
"; 	c #E3E3E3",
"> 	c #E1E1E1",
", 	c #E0E0E0",
"' 	c #DFDFDF",
") 	c #E5E5E5",
"! 	c #EAEAEA",
"~ 	c #E4E4E4",
"{ 	c #8B8B8B",
"] 	c #676767",
"^ 	c #989898",
"/ 	c #DADADA",
"( 	c #F7F7F7",
"_ 	c #ECECEC",
": 	c #F3F3F3",
"< 	c #F6F6F6",
"[ 	c #EEEEEE",
"} 	c #DDDDDD",
"| 	c #F5F5F5",
"1 	c #BCBCBC",
"2 	c #7A7A7A",
"3 	c #636363",
"4 	c #999999",
"5 	c #EDEDED",
"6 	c #E2E2E2",
"7 	c #EFEFEF",
"8 	c #E9E9E9",
"9 	c #F1F1F1",
"0 	c #DBDBDB",
"a 	c #6C6C6C",
"b 	c #959595",
"c 	c #EBEBEB",
"d 	c #7E7E7E",
"e 	c #6A6A6A",
"f 	c #6B6B6B",
"g 	c #9E9E9E",
"h 	c #F0F0F0",
"i 	c #E8E8E8",
"j 	c #A2A2A2",
"k 	c #919191",
"l 	c #717171",
"m 	c #939393",
"n 	c #FAFAFA",
"o 	c #E6E6E6",
"p 	c #FFFFFF",
"q 	c #D0D0D0",
"r 	c #868686",
"s 	c #A1A1A1",
"t 	c #818181",
"u 	c #D6D6D6",
"v 	c #D8D8D8",
"w 	c #828282",
"x 	c #A5A5A5",
"y 	c #DEDEDE",
"z 	c #D4D4D4",
"A 	c #DCDCDC",
"B 	c #888888",
"C 	c #8F8F8F",
"D 	c #C3C3C3",
"E 	c #D3D3D3",
"F 	c #D9D9D9",
"G 	c #D7D7D7",
"H 	c #D5D5D5",
"I 	c #878787",
"J 	c #9A9A9A",
"K 	c #CBCBCB",
"L 	c #CCCCCC",
"M 	c #CFCFCF",
"N 	c #C9C9C9",
"O 	c #D2D2D2",
"P 	c #CECECE",
"Q 	c #C5C5C5",
"R 	c #A7A7A7",
"S 	c #8D8D8D",
"T 	c #A8A8A8",
"U 	c #8A8A8A",
"V 	c #9F9F9F",
"W 	c #8E8E8E",
"X 	c #CDCDCD",
"Y 	c #C6C6C6",
"Z 	c #C2C2C2",
"` 	c #B0B0B0",
" .	c #9C9C9C",
"..	c #C4C4C4",
"+.	c #C7C7C7",
"@.	c #C8C8C8",
"#.	c #C0C0C0",
"$.	c #B7B7B7",
"%.	c #9D9D9D",
"&.	c #9B9B9B",
"*.	c #BDBDBD",
"=.	c #BEBEBE",
"-.	c #BABABA",
";.	c #C1C1C1",
">.	c #B2B2B2",
",.	c #949494",
"'.	c #B6B6B6",
").	c #B5B5B5",
"!.	c #B9B9B9",
"~.	c #B8B8B8",
"{.	c #B3B3B3",
"].	c #B1B1B1",
"^.	c #AFAFAF",
"/.	c #ABABAB",
"(.	c #929292",
"_.	c #A9A9A9",
":.	c #AEAEAE",
"<.	c #AAAAAA",
"[.	c #A0A0A0",
"}.	c #A4A4A4",
"|.	c #898989",
"1.	c #969696",
"2.	c #838383",
"3.	c #8C8C8C",
"                                                                            ",
"                                                                            ",
"                                                                            ",
"                                                                            ",
"                              . + + @ # $ % &                               ",
"                          * = - ; > , ' > ) ! ~ @ {                         ",
"                      ] ^ / ( ~ - _ : ( < [ ~ } | 1 2                       ",
"                    3 4 | 5 6 7 _ ! 8 - 8 5 7 9 ) < 0 { a                   ",
"                  ] b | _ - | 8 _ c _ 5 [ [ 7 7 8 | 5 c d e                 ",
"                f g > 8 - [ : h 8 - 8 ! _ _ _ 5 h [ , 9 i j k               ",
"              l m c n > c 5 6 h ~ > 6 ; o - i 8 ~ [ 7 , p q r s             ",
"            t r q : _ , 9 o u c > ' ' , 6 ; ) ) > ; n v > 9 * k             ",
"            w x ) / u , o > y ; y } } } } } y ' 8 z ; ) A - q @ +           ",
"          B C D 0 E ' ; E 0 ; E F F F F v G G v G ' E y ~ y H x I           ",
"          d J K H G , A L M z N O z E O q M P M Q A z q E 0 G R S T         ",
"        U V W N O X Q N M Y Z q P M P P X X L K z = X v Z L H ` s U         ",
"        x  . .Q ..Q ......D ..D D D ..Q +.@.@.+.Z +.Y #...L Q $.s %.        ",
"        g ^ &.*.1 *.*.1 *.=.#.*.= -.= =.;.;.;.;.= ;.#.-.=...=.>.x %.        ",
"        C ,.V % '.$.'.'.).$.!.~.$.'.!.!.-.-.-.!.).~.$.{.'.1 '.$ # %.&.      ",
"        w m x $ {.% % >.{.% {.{.).).'.'.).).).% ` >.].^.].'.{./.&  .^       ",
"        t (._.& ` ].].^.^.* * :.].>.].].` ` ` :./.* * $ * ` :._.R ^         ",
"        S + _.s <.$ $ /.T R & & <./.<.<._._.T R R & _._._.<.T x [.k         ",
"        [.(._.s R _.<.T & # j # T <.T & x x x }.}.x R T T T T x [.|.        ",
"        :.1./.# T /./.<.T x # }.T _.R & x # }.x R T <././.<.<.& s 2.        ",
"          V g V * R R $ ^._.# s R R x x # j # x x {.^.<.^.:.T }.{           ",
"          j S _.&.:.'.<.x & <.<.& x }.}.j s # & :.:.<.^.'.R j :.3.          ",
"            ^ &.}.}.x T T R R <.x }.}.j s s }.R * R * ` & x <.C j           ",
"            $ C s [.V x $ ^._.x & x }.# j j x T _.:.* _.x j s C             ",
"              (.B s $ s # * ].<.T R x }.# }.R <./.-.x s {.{ {               ",
"                (.^ W j /.}.& >.<._.R & x x T <.^.T T # { |._.              ",
"                  x ,.s ` # # ^.* $ <.T R R <.$ * # :.T W <.                ",
"                    -.4 k <.].}.$ * /._.R & & x s ).m W                     ",
"                        }.U C $ T :./.T }.s V J W { g                       ",
"                            [.C 1.J J 4 &.4 + I                             ",
"                                                                            ",
"                                                                            ",
"                                                                            ",
"                                                                            "};
