/* XPM */
static char * pion1_xpm[] = {
"50 50 451 2",
"  	c None",
". 	c #000000",
"+ 	c #CE2E2E",
"@ 	c #C10A0A",
"# 	c #CC0B0B",
"$ 	c #CF0C0C",
"% 	c #D10D0D",
"& 	c #C90D0D",
"* 	c #D73232",
"= 	c #D96363",
"- 	c #C61010",
"; 	c #C70909",
"> 	c #C90909",
", 	c #CB0A0A",
"' 	c #CD0B0B",
") 	c #D20D0D",
"! 	c #D50F0F",
"~ 	c #D81010",
"{ 	c #DB1212",
"] 	c #DE1515",
"^ 	c #E21717",
"/ 	c #E31E1E",
"( 	c #C20808",
"_ 	c #C40808",
": 	c #C50909",
"< 	c #C90A0A",
"[ 	c #CE0C0C",
"} 	c #D00D0D",
"| 	c #D40F0F",
"1 	c #D71111",
"2 	c #DB1414",
"3 	c #DF1717",
"4 	c #E31A1A",
"5 	c #E71C1C",
"6 	c #EB1F1F",
"7 	c #EE2121",
"8 	c #F12323",
"9 	c #C52020",
"0 	c #C00808",
"a 	c #CF0D0D",
"b 	c #D20F0F",
"c 	c #D61212",
"d 	c #DB1515",
"e 	c #DF1818",
"f 	c #E51C1C",
"g 	c #EA2020",
"h 	c #EF2424",
"i 	c #F32828",
"j 	c #F72A2A",
"k 	c #FA2C2C",
"l 	c #FB2D2D",
"m 	c #F53D3D",
"n 	c #BE0A0A",
"o 	c #BF0808",
"p 	c #C40909",
"q 	c #C80A0A",
"r 	c #CA0B0B",
"s 	c #CD0D0D",
"t 	c #D00F0F",
"u 	c #D51212",
"v 	c #DA1515",
"w 	c #DF1A1A",
"x 	c #E61F1F",
"y 	c #EC2424",
"z 	c #F32A2A",
"A 	c #F92F2F",
"B 	c #FE3333",
"C 	c #FF3636",
"D 	c #FF3838",
"E 	c #FF3737",
"F 	c #FD3535",
"G 	c #BC0808",
"H 	c #BD0808",
"I 	c #BE0808",
"J 	c #C60909",
"K 	c #CB0C0C",
"L 	c #CE0E0E",
"M 	c #D31111",
"N 	c #D81515",
"O 	c #DE1A1A",
"P 	c #E62020",
"Q 	c #EE2727",
"R 	c #F62F2F",
"S 	c #FF3C3C",
"T 	c #FF4141",
"U 	c #FF4545",
"V 	c #FF4646",
"W 	c #FF4343",
"X 	c #FF3F3F",
"Y 	c #FF3B3B",
"Z 	c #BA0A0A",
"` 	c #BB0808",
" .	c #C30909",
"..	c #C60A0A",
"+.	c #C80B0B",
"@.	c #CC0D0D",
"#.	c #D01010",
"$.	c #D51414",
"%.	c #DC1A1A",
"&.	c #E52121",
"*.	c #EE2929",
"=.	c #F93333",
"-.	c #FF4E4E",
";.	c #FF5454",
">.	c #FF5757",
",.	c #FF5858",
"'.	c #FF5656",
").	c #FF5252",
"!.	c #FF4C4C",
"~.	c #FD3E3E",
"{.	c #C01F1F",
"].	c #BA0707",
"^.	c #C10909",
"/.	c #C90C0C",
"(.	c #CD0F0F",
"_.	c #D21313",
":.	c #D91818",
"<.	c #E22020",
"[.	c #ED2929",
"}.	c #F93535",
"|.	c #FF5959",
"1.	c #FF6363",
"2.	c #FF6A6A",
"3.	c #FF6D6D",
"4.	c #FF6C6C",
"5.	c #FF6868",
"6.	c #FF6161",
"7.	c #FF5050",
"8.	c #F64B4B",
"9.	c #B80707",
"0.	c #B90707",
"a.	c #C30A0A",
"b.	c #C60B0B",
"c.	c #CA0D0D",
"d.	c #CE1111",
"e.	c #D51616",
"f.	c #DE1D1D",
"g.	c #E92727",
"h.	c #F73434",
"i.	c #FF5353",
"j.	c #FF7171",
"k.	c #FF7C7C",
"l.	c #FF8383",
"m.	c #FF8585",
"n.	c #FF8282",
"o.	c #FF7B7B",
"p.	c #FF6666",
"q.	c #FF5A5A",
"r.	c #FF4242",
"s.	c #B60808",
"t.	c #B70707",
"u.	c #BA0808",
"v.	c #C60C0C",
"w.	c #CA0E0E",
"x.	c #D01313",
"y.	c #D81919",
"z.	c #E32323",
"A.	c #F13030",
"B.	c #FF4040",
"C.	c #FF6767",
"D.	c #FF8C8C",
"E.	c #FF9898",
"F.	c #FF9E9E",
"G.	c #FF8E8E",
"H.	c #FF8181",
"I.	c #FF7272",
"J.	c #FF4747",
"K.	c #FE3B3B",
"L.	c #FA9D9D",
"M.	c #B60707",
"N.	c #C70C0C",
"O.	c #CB1010",
"P.	c #D21515",
"Q.	c #DB1D1D",
"R.	c #E92929",
"S.	c #FA3939",
"T.	c #FF6565",
"U.	c #FF7E7E",
"V.	c #FF9595",
"W.	c #FFA8A8",
"X.	c #FFB5B5",
"Y.	c #FFBABA",
"Z.	c #FFB7B7",
"`.	c #FFADAD",
" +	c #FF9F9F",
".+	c #FF6969",
"++	c #FF4949",
"@+	c #B70E0E",
"#+	c #B50707",
"$+	c #B90808",
"%+	c #C00909",
"&+	c #C30B0B",
"*+	c #C70D0D",
"=+	c #CC1111",
"-+	c #D41717",
";+	c #DF2121",
">+	c #EE3030",
",+	c #FF5B5B",
"'+	c #FF7777",
")+	c #FF9494",
"!+	c #FFAFAF",
"~+	c #FFC3C3",
"{+	c #FFCFCF",
"]+	c #FFD2D2",
"^+	c #FFCBCB",
"/+	c #FFBEBE",
"(+	c #FFABAB",
"_+	c #FF9696",
":+	c #FF4A4A",
"<+	c #FA3434",
"[+	c #B30707",
"}+	c #CC1212",
"|+	c #D51919",
"1+	c #E12424",
"2+	c #F33535",
"3+	c #FF4B4B",
"4+	c #FF8787",
"5+	c #FFA7A7",
"6+	c #FFC4C4",
"7+	c #FFD8D8",
"8+	c #FFE3E3",
"9+	c #FFD9D9",
"0+	c #FFC7C7",
"a+	c #FFB1B1",
"b+	c #FF9999",
"c+	c #FF4848",
"d+	c #FF3A3A",
"e+	c #FE2F2F",
"f+	c #D06565",
"g+	c #B40707",
"h+	c #BF0909",
"i+	c #C20B0B",
"j+	c #C60E0E",
"k+	c #CC1313",
"l+	c #D61A1A",
"m+	c #E32727",
"n+	c #F63939",
"o+	c #FF5151",
"p+	c #FF7070",
"q+	c #FF9292",
"r+	c #FFB3B3",
"s+	c #FFD0D0",
"t+	c #FFE4E4",
"u+	c #FFECEC",
"v+	c #FFE9E9",
"w+	c #FFDCDC",
"x+	c #FFC8C8",
"y+	c #FF4444",
"z+	c #BB2B2B",
"A+	c #D51B1B",
"B+	c #F73A3A",
"C+	c #FFB6B6",
"D+	c #FFD1D1",
"E+	c #FFD4D4",
"F+	c #FFA5A5",
"G+	c #FF7474",
"H+	c #FF5F5F",
"I+	c #FF4D4D",
"J+	c #FF3E3E",
"K+	c #FF3232",
"L+	c #F52828",
"M+	c #E83F3F",
"N+	c #AA0707",
"O+	c #B20707",
"P+	c #BE0909",
"Q+	c #C10B0B",
"R+	c #C50D0D",
"S+	c #CB1212",
"T+	c #D41A1A",
"U+	c #E12626",
"V+	c #F43838",
"W+	c #FF6E6E",
"X+	c #FFC6C6",
"Y+	c #FFD5D5",
"Z+	c #FFC1C1",
"`+	c #FFACAC",
" @	c #FF7D7D",
".@	c #F82C2C",
"+@	c #F02323",
"@@	c #DB1A1A",
"#@	c #AF0707",
"$@	c #B80808",
"%@	c #BD0909",
"&@	c #C00A0A",
"*@	c #C40D0D",
"=@	c #C91111",
"-@	c #D11818",
";@	c #DD2323",
">@	c #EF3333",
",@	c #FF7F7F",
"'@	c #FF9A9A",
")@	c #FFBBBB",
"!@	c #FFBDBD",
"~@	c #FF6B6B",
"{@	c #F12626",
"]@	c #EA1F1F",
"^@	c #E21818",
"/@	c #B10707",
"(@	c #BC0909",
"_@	c #BF0A0A",
":@	c #C20C0C",
"<@	c #C71010",
"[@	c #CE1616",
"}@	c #D81F1F",
"|@	c #E72C2C",
"1@	c #FA3E3E",
"2@	c #FF8080",
"3@	c #FF9191",
"4@	c #FF9B9B",
"5@	c #FF8888",
"6@	c #FF7878",
"7@	c #F93030",
"8@	c #F12727",
"9@	c #E51A1A",
"0@	c #E01616",
"a@	c #AE0707",
"b@	c #B00707",
"c@	c #BB0909",
"d@	c #C50E0E",
"e@	c #CA1313",
"f@	c #D31A1A",
"g@	c #DE2424",
"h@	c #ED3232",
"i@	c #FF6464",
"j@	c #FF7373",
"k@	c #FF5E5E",
"l@	c #FF3939",
"m@	c #EF2727",
"n@	c #E82020",
"o@	c #E41B1B",
"p@	c #DA1313",
"q@	c #A80707",
"r@	c #B70808",
"s@	c #CD1515",
"t@	c #D61D1D",
"u@	c #E12727",
"v@	c #FB3F3F",
"w@	c #FF3D3D",
"x@	c #F93434",
"y@	c #F12C2C",
"z@	c #EB2525",
"A@	c #E11A1A",
"B@	c #DE1616",
"C@	c #DB1313",
"D@	c #CC0F0F",
"E@	c #B92B2B",
"F@	c #BD0A0A",
"G@	c #C00B0B",
"H@	c #C81111",
"I@	c #DF2525",
"J@	c #E82D2D",
"K@	c #F13434",
"L@	c #F83A3A",
"M@	c #FC3D3D",
"N@	c #FC3C3C",
"O@	c #F93838",
"P@	c #F43232",
"Q@	c #EF2D2D",
"R@	c #EA2727",
"S@	c #E62121",
"T@	c #E11C1C",
"U@	c #DE1818",
"V@	c #D91212",
"W@	c #D71010",
"X@	c #D63131",
"Y@	c #CE6565",
"Z@	c #C10C0C",
"`@	c #C40E0E",
" #	c #CE1515",
".#	c #DA1F1F",
"+#	c #E02424",
"@#	c #E42828",
"##	c #E82A2A",
"$#	c #E92B2B",
"%#	c #E92A2A",
"&#	c #E72727",
"*#	c #E52424",
"=#	c #DF1D1D",
"-#	c #DC1919",
";#	c #DA1616",
">#	c #D81313",
",#	c #D61111",
"'#	c #D40E0E",
")#	c #E26A6A",
"!#	c #C81010",
"~#	c #D01616",
"{#	c #D41919",
"]#	c #D71B1B",
"^#	c #D91D1D",
"/#	c #DB1B1B",
"(#	c #DA1A1A",
"_#	c #D81818",
":#	c #D71515",
"<#	c #D51313",
"[#	c #D41111",
"}#	c #D31010",
"|#	c #D20E0E",
"1#	c #D10C0C",
"2#	c #B00E0E",
"3#	c #C30D0D",
"4#	c #C91010",
"5#	c #CE1313",
"6#	c #D01414",
"7#	c #D11515",
"8#	c #D21414",
"9#	c #D11212",
"0#	c #D11010",
"a#	c #D00E0E",
"b#	c #CF0B0B",
"c#	c #CE1212",
"d#	c #CD6262",
"e#	c #C40C0C",
"f#	c #C60D0D",
"g#	c #C80E0E",
"h#	c #C90F0F",
"i#	c #CA0F0F",
"j#	c #CB0F0F",
"k#	c #CC0E0E",
"l#	c #CC0C0C",
"m#	c #CC0A0A",
"n#	c #DE6565",
"o#	c #AD0707",
"p#	c #C40B0B",
"q#	c #C50C0C",
"r#	c #C80C0C",
"s#	c #C90B0B",
"t#	c #CA0A0A",
"u#	c #CE6868",
"v#	c #C20A0A",
"w#	c #C40A0A",
"x#	c #C50A0A",
"y#	c #C70A0A",
"z#	c #C80909",
"A#	c #DD6A6A",
"B#	c #B61E1E",
"C#	c #C20909",
"D#	c #CB2121",
"E#	c #AE0909",
"F#	c #C10808",
"G#	c #C30808",
"H#	c #C50B0B",
"I#	c #E9A9A9",
"J#	c #B71F1F",
"K#	c #C42020",
"L#	c #CF6868",
"M#	c #B20E0E",
"N#	c #BB0E0E",
"O#	c #D36363",
"P#	c #CF6565",
"Q#	c #BE2C2C",
"R#	c #D26565",
"                                              . . . . .                                             ",
"                                              . . . . .                                             ",
"                                              . . . . .                                             ",
"                                              . . . . .                                             ",
"                                              . . . . .                                             ",
"                                              . . . . .                                             ",
"                                              . . . . .                                             ",
"                                              . . . . .                                             ",
"                                            + @ # $ % & *                                           ",
"                                    = - ; > , ' $ ) ! ~ { ] ^ /                                     ",
"                                  ( _ : ; < , [ } | 1 2 3 4 5 6 7 8                                 ",
"                              9 0 ( _ : ; < # a b c d e f g h i j k l m                             ",
"                            n o 0 ( p : q r s t u v w x y z A B C D D E F                           ",
"                          G H I 0 ( p J q K L M N O P Q R C S T U V V W X Y                         ",
"                        Z ` H I 0 (  ...+.@.#.$.%.&.*.=.S V -.;.>.,.'.).!.U ~.                      ",
"                      {.].` G I 0 ^. .../.(._.:.<.[.}.T -.|.1.2.3.4.5.6.|.7.V 8.                    ",
"                      9.0.` G I o ^.a.b.c.d.e.f.g.h.W i.1.j.k.l.m.n.o.j.p.q.-.r.                    ",
"                    s.t.0.u.G H o ^.a.v.w.x.y.z.A.B.i.C.o.D.E.F.F.E.G.H.I.1.;.J.K.L.                ",
"                    M.t.9.u.` H o ^.a.N.O.P.Q.R.S.-.T.U.V.W.X.Y.Z.`. +G.o..+,.++S                   ",
"                  @+#+t.9.$+` H I %+&+*+=+-+;+>+W ,+'+)+!+~+{+]+^+/+(+_+H.4.q.:+S <+                ",
"                  [+#+M.9.$+u.G I %+&+*+}+|+1+2+3+C.4+5+6+7+8+8+9+0+a+b+n.4.,.c+d+e+                ",
"                f+[+g+M.t.$+u.G H h+i+j+k+l+m+n+o+p+q+r+s+t+u+v+w+x+!+_+U.C.;.y+C k                 ",
"                z+[+g+#+t.9.$+` H h+i+j+k+A+m+B+i.I.)+C+D+8+v+8+E+/+F+D.G+H+I+J+K+L+M+              ",
". . . . . . . . N+O+[+#+M.t.$+u.G P+Q+R+S+T+U+V+7.W+G.`.X+Y+7+D+Z+`+V. @C.;.y+E .@+@@@. . . . . . . ",
". . . . . . . . #@O+[+g+#+t.$@u.` %@&@*@=@-@;@>@++1.,@'@!+)@!@X.5+)+,@~@,.c+d+A {@]@^@. . . . . . . ",
". . . . . . . . #@/@O+g+#+M.$@$+` (@_@:@<@[@}@|@1@i.~@2@3@'@4@)+5@6@5.>.c+Y 7@8@g 9@0@. . . . . . . ",
". . . . . . . . a@b@O+[+g+#+t.$@u.c@P+Q+d@e@f@g@h@r.;.i@p+'+6@j@.+k@o+y+l@R m@n@o@0@p@. . . . . . . ",
". . . . . . . . q@b@/@O+g+#+M.r@$+` (@_@:@<@s@t@u@h@v@:+i.>.,.;.-.V w@x@y@z@x A@B@C@D@. . . . . . . ",
"                E@#@b@O+[+g+#+t.$@u.c@F@G@*@H@[@t@I@J@K@L@M@~.N@O@P@Q@R@S@T@U@d V@W@X@              ",
"                Y@#@b@/@O+[+#+M.r@$+u.(@n Z@`@=@ #T+.#+#@###$#%#&#*#<.=#-#;#>#,#! '#)#              ",
"                  a@#@b@/@[+g+#+M.$@$+` (@n Z@`@!#k+~#{#]#^#Q.Q./#(#_#:#<#[#}#|#% 1#                ",
"                  2#a@b@/@O+[+g+#+r@$@$+` %@_@Q+3#j+4#S+5#6#7#8#8#_.9#0#t a#a $ b#c#                ",
"                  d#a@#@b@/@O+[+#+M.r@$@u.` %@n &@i+e#f#g#h#i#j#D@k#k#@.l#l## # m#n#                ",
"                    o#a@#@b@/@[+g+#+M.r@$@u.` (@P+_@@ i+p#q#v.N.r#r#s#s#s#< t#t#t#                  ",
"                    u#o#a@#@/@O+[+g+#+M.r@$@u.` G %@h+%+@ v#a.w#x#x#....y#; z#z#A#                  ",
"                      B#a@#@b@/@O+[+g+#+M.r@$@u.` G H P+h+%+^.C#C# .p p : : J D#                    ",
"                        E#a@#@b@/@O+[+g+#+M.t.$@$+u.` G H I o 0 F#F#( G#G#_ H#                      ",
"                          o#a@#@b@/@O+[+g+#+M.t.$@$+u.` G H I I o 0 F#F#( (                         ",
"                            E#a@#@b@/@O+[+g+#+M.t.9.$+u.` ` G H I I o 0 @ I#                        ",
"                              J#a@#@b@/@O+[+g+#+M.t.9.9.0.u.` G G H I K#                            ",
"                                L#a@#@b@/@O+[+g+#+M.M.t.9.0.].u.` G                                 ",
"                                    d#M#b@/@O+[+g+g+#+M.t.9.9.N#O#                                  ",
"                                          P#z+N+/@O+[+o#Q#R#                                        ",
"                                              . . . . .                                             ",
"                                              . . . . .                                             ",
"                                              . . . . .                                             ",
"                                              . . . . .                                             ",
"                                              . . . . .                                             ",
"                                              . . . . .                                             ",
"                                              . . . . .                                             "};
