/* XPM */
static char * pion1_xpm[] = {
"30 30 57 1",
" 	c None",
".	c #000000",
"+	c #E8E8E8",
"@	c #E4E4E4",
"#	c #E2E2E2",
"$	c #E6E6E6",
"%	c #EEEEEE",
"&	c #F6F6F6",
"*	c #DCDCDC",
"=	c #DADADA",
"-	c #DFDFDF",
";	c #E3E3E3",
">	c #E7E7E7",
",	c #EDEDED",
"'	c #FFFFFF",
")	c #E5E5E5",
"!	c #D4D4D4",
"~	c #D6D6D6",
"{	c #D9D9D9",
"]	c #DBDBDB",
"^	c #F0F0F0",
"/	c #FCFCFC",
"(	c #D0D0D0",
"_	c #D3D3D3",
":	c #D5D5D5",
"<	c #D8D8D8",
"[	c #DEDEDE",
"}	c #E9E9E9",
"|	c #F5F5F5",
"1	c #CDCDCD",
"2	c #CFCFCF",
"3	c #D2D2D2",
"4	c #D7D7D7",
"5	c #DDDDDD",
"6	c #ECECEC",
"7	c #D1D1D1",
"8	c #CCCCCC",
"9	c #CECECE",
"0	c #C9C9C9",
"a	c #CBCBCB",
"b	c #F3F3F3",
"c	c #C8C8C8",
"d	c #CACACA",
"e	c #C7C7C7",
"f	c #F2F2F2",
"g	c #C3C3C3",
"h	c #C5C5C5",
"i	c #EBEBEB",
"j	c #C2C2C2",
"k	c #C4C4C4",
"l	c #C6C6C6",
"m	c #EFEFEF",
"n	c #FDFDFD",
"o	c #E1E1E1",
"p	c #C1C1C1",
"q	c #E0E0E0",
"r	c #C0C0C0",
"              ..              ",
"              ..              ",
"              ..              ",
"              ..              ",
"              ..              ",
"            +@#$%&            ",
"          *=*-;>,&''          ",
"        )!~{]-#+^/''''        ",
"       ;(_:<=[#}|''''''       ",
"       123!4{5#6/''''''       ",
"      789(_:<*;^''''''''      ",
"      0a123!4*@b''''''''      ",
"     {cd89(_~];|'''''''''     ",
"     ae0a127!{#f'''''''''     ",
".....ghed89(_4[i'''''''''.....",
".....jklcd827!=#mn'''''n&.....",
"     cghe0a123~]#}mfbf^mm     ",
"     :jklcd89(_~=[o@)$$>m     ",
"      pgklcd89(_:<=*[qo#      ",
"      epghe0d89(3!~<=*[;      ",
"       rjghe0a89(3!~4{]       ",
"       =rjkle0a19(3!:4}       ",
"        =pjkle0a89(7_>        ",
"          0jkle0a89:          ",
"            4ahe2]            ",
"              ..              ",
"              ..              ",
"              ..              ",
"              ..              ",
"              ..              "};
