/* XPM */
static char * pion2_xpm[] = {
"30 30 75 1",
" 	c None",
".	c #000000",
"+	c #010101",
"@	c #030303",
"#	c #050505",
"$	c #020202",
"%	c #060606",
"&	c #0C0C0C",
"*	c #151515",
"=	c #1F1F1F",
"-	c #040404",
";	c #0A0A0A",
">	c #141414",
",	c #232323",
"'	c #373737",
")	c #4F4F4F",
"!	c #3A3A3A",
"~	c #070707",
"{	c #101010",
"]	c #363636",
"^	c #525252",
"/	c #707070",
"(	c #888888",
"_	c #565656",
":	c #0B0B0B",
"<	c #191919",
"[	c #303030",
"}	c #727272",
"|	c #929292",
"1	c #A6A6A6",
"2	c #ACACAC",
"3	c #242424",
"4	c #424242",
"5	c #696969",
"6	c #909090",
"7	c #B8B8B8",
"8	c #B2B2B2",
"9	c #8B8B8B",
"0	c #080808",
"a	c #2E2E2E",
"b	c #7C7C7C",
"c	c #A0A0A0",
"d	c #B4B4B4",
"e	c #B3B3B3",
"f	c #A3A3A3",
"g	c #898989",
"h	c #181818",
"i	c #333333",
"j	c #585858",
"k	c #7F7F7F",
"l	c #9A9A9A",
"m	c #A2A2A2",
"n	c #989898",
"o	c #828282",
"p	c #686868",
"q	c #353535",
"r	c #090909",
"s	c #171717",
"t	c #6C6C6C",
"u	c #6E6E6E",
"v	c #5A5A5A",
"w	c #454545",
"x	c #2D2D2D",
"y	c #121212",
"z	c #393939",
"A	c #4B4B4B",
"B	c #535353",
"C	c #444444",
"D	c #282828",
"E	c #1C1C1C",
"F	c #161616",
"G	c #212121",
"H	c #2A2A2A",
"I	c #0F0F0F",
"J	c #131313",
"              ..              ",
"              ..              ",
"              ..              ",
"              ..              ",
"              ..              ",
"            ...+@#            ",
"          ....+$%&*=          ",
"        ......+-;>,')!        ",
"       ......+@~{=]^/(_       ",
"       ......+-:<[)}|12       ",
"      .......$%{34562789      ",
"      ......+@0*a^bcdefg      ",
"     .......+@;hijklmnopq     ",
"     .......+@rs[)tbbuvwx     ",
".............$~y3zAB)C]DE.....",
".............+#:FGHxH,E>I.....",
"     ........+$#;{J>J{&r#     ",
"     .........+$-%~0~%#-+     ",
"      ..........+$$$$$++      ",
"      ..................      ",
"       ................       ",
"       ................       ",
"        ..............        ",
"          ..........          ",
"            ......            ",
"              ..              ",
"              ..              ",
"              ..              ",
"              ..              ",
"              ..              "};
