/* XPM */
static char * red_xpm[] = {
"38 38 646 2",
"  	c None",
". 	c #6F1822",
"+ 	c #7E202E",
"@ 	c #811E2F",
"# 	c #822B39",
"$ 	c #893C49",
"% 	c #934354",
"& 	c #9D495A",
"* 	c #9A3146",
"= 	c #865255",
"- 	c #946064",
"; 	c #C4898F",
"> 	c #C57F89",
", 	c #C57C87",
"' 	c #C57985",
") 	c #C57784",
"! 	c #C97887",
"~ 	c #CB7D8B",
"{ 	c #CF8390",
"] 	c #CB7C89",
"^ 	c #7B313E",
"/ 	c #7D1827",
"( 	c #4B0205",
"_ 	c #753A3F",
": 	c #B87B80",
"< 	c #D79599",
"[ 	c #C87F86",
"} 	c #CE7F85",
"| 	c #D5828A",
"1 	c #DD8792",
"2 	c #E28A96",
"3 	c #E28894",
"4 	c #DB7F8C",
"5 	c #D17685",
"6 	c #C7717E",
"7 	c #DC8C99",
"8 	c #9F5862",
"9 	c #60131A",
"0 	c #450001",
"a 	c #822F31",
"b 	c #D79297",
"c 	c #D2878C",
"d 	c #CA797F",
"e 	c #D7858B",
"f 	c #D48286",
"g 	c #D47F84",
"h 	c #D57B84",
"i 	c #D57882",
"j 	c #D97883",
"k 	c #DE7A86",
"l 	c #E17C8A",
"m 	c #E17F8C",
"n 	c #D27683",
"o 	c #DF8C96",
"p 	c #BF767D",
"q 	c #702428",
"r 	c #570002",
"s 	c #4C0000",
"t 	c #7F2A2C",
"u 	c #DA8E92",
"v 	c #D48288",
"w 	c #D37A80",
"x 	c #E3868E",
"y 	c #D67B80",
"z 	c #D58181",
"A 	c #D38281",
"B 	c #D68081",
"C 	c #DA7E81",
"D 	c #DD7D81",
"E 	c #E07B81",
"F 	c #E27A83",
"G 	c #DB7580",
"H 	c #E4858D",
"I 	c #D88187",
"J 	c #D28386",
"K 	c #661417",
"L 	c #520201",
"M 	c #520202",
"N 	c #8A3033",
"O 	c #C8797C",
"P 	c #D37D80",
"Q 	c #D6777B",
"R 	c #DF7C81",
"S 	c #E67E85",
"T 	c #E17E81",
"U 	c #D57D7B",
"V 	c #D27F7B",
"W 	c #D77C7B",
"X 	c #DC7A7B",
"Y 	c #DF787B",
"Z 	c #E1767C",
"` 	c #E3767C",
" .	c #E67881",
"..	c #E27980",
"+.	c #D26D73",
"@.	c #E08185",
"#.	c #D47B7F",
"$.	c #8D3639",
"%.	c #851C1C",
"&.	c #5B0508",
"*.	c #7C282B",
"=.	c #D57F82",
"-.	c #E98A8E",
";.	c #D36E72",
">.	c #DF767A",
",.	c #E3767B",
"'.	c #D86B70",
").	c #E37B7C",
"!.	c #D47772",
"~.	c #D17870",
"{.	c #D27870",
"].	c #D57670",
"^.	c #D87472",
"/.	c #DB7372",
"(.	c #DE7174",
"_.	c #E17074",
":.	c #DD6A6F",
"<.	c #E77479",
"[.	c #E7767C",
"}.	c #D7686E",
"|.	c #F78A8F",
"1.	c #C45B5F",
"2.	c #791216",
"3.	c #A61B1D",
"4.	c #710F13",
"5.	c #6F1C20",
"6.	c #BF6064",
"7.	c #E77E83",
"8.	c #E3747A",
"9.	c #D9666B",
"0.	c #EA777C",
"a.	c #DF6C6F",
"b.	c #CF5C61",
"c.	c #E17374",
"d.	c #D66F6A",
"e.	c #D57068",
"f.	c #D66F68",
"g.	c #D96D6A",
"h.	c #DA6D6A",
"i.	c #DD6B6B",
"j.	c #DE6A6B",
"k.	c #DC6466",
"l.	c #E06568",
"m.	c #F77C81",
"n.	c #D6595F",
"o.	c #DF6268",
"p.	c #EF7278",
"q.	c #AB2E36",
"r.	c #881920",
"s.	c #6B181F",
"t.	c #96323A",
"u.	c #DD6B73",
"v.	c #D65D64",
"w.	c #D4575D",
"x.	c #DE6167",
"y.	c #E3686D",
"z.	c #D76366",
"A.	c #DC6869",
"B.	c #D96361",
"C.	c #D9635F",
"D.	c #DA635F",
"E.	c #DA6261",
"F.	c #DC6261",
"G.	c #E66A6C",
"H.	c #D45357",
"I.	c #E56065",
"J.	c #E86167",
"K.	c #E1555E",
"L.	c #ED6069",
"M.	c #D74751",
"N.	c #961720",
"O.	c #89161D",
"P.	c #751A23",
"Q.	c #7E1F27",
"R.	c #BB4953",
"S.	c #D95B66",
"T.	c #D54F58",
"U.	c #E25B62",
"V.	c #D35257",
"W.	c #D85C5E",
"X.	c #DE6769",
"Y.	c #D05655",
"Z.	c #DB5657",
"`.	c #DD5653",
" +	c #DC5655",
".+	c #DB5755",
"++	c #D95755",
"@+	c #D85855",
"#+	c #D85857",
"$+	c #D75555",
"%+	c #E15C5F",
"&+	c #D84D52",
"*+	c #E5565C",
"=+	c #EE5861",
"-+	c #EA505A",
";+	c #E24653",
">+	c #AB1D29",
",+	c #7D0F18",
"'+	c #69121C",
")+	c #8E2430",
"!+	c #C84C57",
"~+	c #D94F5C",
"{+	c #DE4E58",
"]+	c #E75760",
"^+	c #E1565B",
"/+	c #CE494E",
"(+	c #CD4F50",
"_+	c #CF5758",
":+	c #C84B49",
"<+	c #DA484B",
"[+	c #E04648",
"}+	c #DD4749",
"|+	c #DA4849",
"1+	c #D64A49",
"2+	c #D34C49",
"3+	c #D24C49",
"4+	c #D14D4B",
"5+	c #C84241",
"6+	c #DF5759",
"7+	c #DB4C50",
"8+	c #DA454B",
"9+	c #E0454D",
"0+	c #EA4A54",
"a+	c #E94351",
"b+	c #B21A27",
"c+	c #890F1A",
"d+	c #AB2430",
"e+	c #870C1C",
"f+	c #8D2F3A",
"g+	c #871421",
"h+	c #CA4653",
"i+	c #DA4956",
"j+	c #D7414C",
"k+	c #CF3A40",
"l+	c #D14043",
"m+	c #D44849",
"n+	c #C94141",
"o+	c #C6403D",
"p+	c #D64C49",
"q+	c #DA4040",
"r+	c #DE3E3E",
"s+	c #DD3F3E",
"t+	c #DB3F40",
"u+	c #D94140",
"v+	c #D64242",
"w+	c #D44242",
"x+	c #D34342",
"y+	c #DB4B4B",
"z+	c #C33132",
"A+	c #D84146",
"B+	c #E54A50",
"C+	c #D23139",
"D+	c #DF3840",
"E+	c #EC3D4A",
"F+	c #C21C28",
"G+	c #AC1524",
"H+	c #880B14",
"I+	c #95343F",
"J+	c #902632",
"K+	c #991D28",
"L+	c #C9404A",
"M+	c #CB3B44",
"N+	c #CE393B",
"O+	c #CF3938",
"P+	c #D13936",
"Q+	c #D23733",
"R+	c #D53632",
"S+	c #D53630",
"T+	c #D5382F",
"U+	c #D63731",
"V+	c #D83631",
"W+	c #DA3533",
"X+	c #DA3434",
"Y+	c #D93536",
"Z+	c #D83536",
"`+	c #D33033",
" @	c #D63638",
".@	c #D53537",
"+@	c #D22D31",
"@@	c #D82F34",
"#@	c #E23539",
"$@	c #DE2A33",
"%@	c #D31924",
"&@	c #C00110",
"*@	c #AF0912",
"=@	c #902A35",
"-@	c #911E2B",
";@	c #9C1825",
">@	c #C4343E",
",@	c #C63137",
"'@	c #C93033",
")@	c #CA302E",
"!@	c #CB302C",
"~@	c #CF2D2A",
"{@	c #D32B28",
"]@	c #D82926",
"^@	c #D62923",
"/@	c #D12D24",
"(@	c #CF2F23",
"_@	c #D42B26",
":@	c #D82828",
"<@	c #D8282A",
"[@	c #D7292B",
"}@	c #CF2526",
"|@	c #D42C2C",
"1@	c #D32B2B",
"2@	c #CD2525",
"3@	c #D42628",
"4@	c #DD2A2D",
"5@	c #D92227",
"6@	c #D21019",
"7@	c #C80004",
"8@	c #B5030B",
"9@	c #811B25",
"0@	c #8E1824",
"a@	c #A41823",
"b@	c #C02630",
"c@	c #C5262B",
"d@	c #C82526",
"e@	c #C82423",
"f@	c #C82422",
"g@	c #CA221F",
"h@	c #CD211F",
"i@	c #D11F1F",
"j@	c #D11F1D",
"k@	c #D0211C",
"l@	c #CF221C",
"m@	c #D2201E",
"n@	c #D31F1E",
"o@	c #D51E20",
"p@	c #D31F20",
"q@	c #D02022",
"r@	c #CA1E1E",
"s@	c #CC2222",
"t@	c #CB2121",
"u@	c #C71D1D",
"v@	c #CD1D1F",
"w@	c #D52122",
"x@	c #D2191E",
"y@	c #CC0A12",
"z@	c #C50004",
"A@	c #B4040B",
"B@	c #B51800",
"C@	c #760D17",
"D@	c #8F161F",
"E@	c #AD1B25",
"F@	c #BD1920",
"G@	c #C71D20",
"H@	c #CB1B1D",
"I@	c #CB1B1B",
"J@	c #CA1B18",
"K@	c #CA1A1A",
"L@	c #CC1A1A",
"M@	c #CC181B",
"N@	c #CE1719",
"O@	c #D11718",
"P@	c #D31716",
"Q@	c #D31718",
"R@	c #D3161A",
"S@	c #D1171A",
"T@	c #D0181A",
"U@	c #CD191A",
"V@	c #C71717",
"W@	c #C91B1A",
"X@	c #C91C18",
"Y@	c #C71815",
"Z@	c #CB1716",
"`@	c #D11919",
" #	c #D01415",
".#	c #CB0A0F",
"+#	c #CA000E",
"@#	c #B3030D",
"##	c #AE1400",
"$#	c #7A0710",
"%#	c #90131B",
"&#	c #B51B23",
"*#	c #BC0F15",
"=#	c #CB1315",
"-#	c #CF1111",
";#	c #CD1110",
">#	c #CB1112",
",#	c #C91015",
"'#	c #C81116",
")#	c #CA1015",
"!#	c #D40D14",
"~#	c #D70C12",
"{#	c #D50C12",
"]#	c #D40D12",
"^#	c #D10E12",
"/#	c #D00F12",
"(#	c #CD1112",
"_#	c #CA1210",
":#	c #C7110E",
"<#	c #C91310",
"[#	c #C8100E",
"}#	c #CA110F",
"|#	c #CE1010",
"1#	c #CE0C0D",
"2#	c #CA070D",
"3#	c #C80412",
"4#	c #AC030F",
"5#	c #8D0B14",
"6#	c #8E1117",
"7#	c #B61A1E",
"8#	c #BA0609",
"9#	c #CA0809",
"0#	c #D00606",
"a#	c #CD0708",
"b#	c #C9060A",
"c#	c #C6070E",
"d#	c #C3080F",
"e#	c #C5060E",
"f#	c #D0020C",
"g#	c #D4010A",
"h#	c #D1020A",
"i#	c #CF040A",
"j#	c #CC050A",
"k#	c #C90708",
"l#	c #C80708",
"m#	c #C60907",
"n#	c #C50907",
"o#	c #C60905",
"p#	c #C90908",
"q#	c #CA0806",
"r#	c #CA0607",
"s#	c #CC0607",
"t#	c #CD0205",
"u#	c #C70209",
"v#	c #BD010F",
"w#	c #9F020E",
"x#	c #A9151B",
"y#	c #8F1417",
"z#	c #B8191D",
"A#	c #BC0406",
"B#	c #CC0104",
"C#	c #D10000",
"D#	c #D30000",
"E#	c #CF0001",
"F#	c #CB0004",
"G#	c #C50007",
"H#	c #C1010C",
"I#	c #C4000C",
"J#	c #CF000A",
"K#	c #D20008",
"L#	c #CF0006",
"M#	c #CB0006",
"N#	c #C80104",
"O#	c #C50303",
"P#	c #C50301",
"Q#	c #C60301",
"R#	c #C90200",
"S#	c #CB0101",
"T#	c #CE0000",
"U#	c #C90008",
"V#	c #B70714",
"W#	c #90000C",
"X#	c #C01A1C",
"Y#	c #8F1B1B",
"Z#	c #B71E20",
"`#	c #BC0809",
" $	c #CC0202",
".$	c #D40000",
"+$	c #CE0003",
"@$	c #C80007",
"#$	c #C5000A",
"$$	c #C7000C",
"%$	c #D00008",
"&$	c #CD0006",
"*$	c #C90104",
"=$	c #C40401",
"-$	c #C80200",
";$	c #CC0000",
">$	c #D20000",
",$	c #D50001",
"'$	c #C9010B",
")$	c #B50B19",
"!$	c #85000A",
"~$	c #972825",
"{$	c #A51716",
"]$	c #B40808",
"^$	c #CD0B0B",
"/$	c #CD0000",
"($	c #D60003",
"_$	c #D8050C",
":$	c #CF010B",
"<$	c #C40006",
"[$	c #C00003",
"}$	c #CC000A",
"|$	c #CC0008",
"1$	c #C80106",
"2$	c #C50304",
"3$	c #C20503",
"4$	c #C20501",
"5$	c #C50400",
"6$	c #C80000",
"7$	c #DE0607",
"8$	c #DD0003",
"9$	c #DC0004",
"0$	c #DA0006",
"a$	c #CF0000",
"b$	c #C4020B",
"c$	c #94000C",
"d$	c #A3251F",
"e$	c #8C0F0D",
"f$	c #B71C1A",
"g$	c #B40000",
"h$	c #D1090B",
"i$	c #DE0C0F",
"j$	c #D30001",
"k$	c #CB0002",
"l$	c #CF030C",
"m$	c #CE050F",
"n$	c #CB000A",
"o$	c #C50206",
"p$	c #C20404",
"q$	c #BF0603",
"r$	c #C10600",
"s$	c #CB0100",
"t$	c #D80202",
"u$	c #DA0000",
"v$	c #DC0002",
"w$	c #E40710",
"x$	c #C20000",
"y$	c #C8131C",
"z$	c #95010C",
"A$	c #8D2522",
"B$	c #9F1916",
"C$	c #B51213",
"D$	c #BF0709",
"E$	c #C80003",
"F$	c #CE0002",
"G$	c #CE0001",
"H$	c #CD0001",
"I$	c #CC0003",
"J$	c #C60108",
"K$	c #C20406",
"L$	c #BF0601",
"M$	c #C60300",
"N$	c #D90000",
"O$	c #DF0009",
"P$	c #CB0000",
"Q$	c #C9000A",
"R$	c #C80B12",
"S$	c #9C0006",
"T$	c #C2000D",
"U$	c #AA312D",
"V$	c #871916",
"W$	c #A8191B",
"X$	c #B20C10",
"Y$	c #BD0006",
"Z$	c #C80005",
"`$	c #D40308",
" %	c #D70508",
".%	c #D10002",
"+%	c #C40304",
"@%	c #C10503",
"#%	c #C10601",
"$%	c #C20600",
"%%	c #D00000",
"&%	c #D90003",
"*%	c #D00004",
"=%	c #C7020B",
"-%	c #BB080E",
";%	c #B20E13",
">%	c #98040A",
",%	c #8F1513",
"'%	c #830B0D",
")%	c #A9171A",
"!%	c #C2151B",
"~%	c #C00106",
"{%	c #C50000",
"]%	c #D50304",
"^%	c #DB0706",
"/%	c #CF0004",
"(%	c #CC0006",
"_%	c #C40400",
":%	c #CC0100",
"<%	c #E80B14",
"[%	c #C90000",
"}%	c #C00002",
"|%	c #CA1B22",
"1%	c #950001",
"2%	c #910504",
"3%	c #921014",
"4%	c #99151A",
"5%	c #9B0001",
"6%	c #BD060B",
"7%	c #CE070A",
"8%	c #C60000",
"9%	c #CA0000",
"0%	c #DE0705",
"a%	c #D30003",
"b%	c #C90101",
"c%	c #DD0007",
"d%	c #CE000A",
"e%	c #BF060E",
"f%	c #940000",
"g%	c #8E0503",
"h%	c #D10E00",
"i%	c #B3161E",
"j%	c #9E090F",
"k%	c #B8090E",
"l%	c #D00E0F",
"m%	c #DC0100",
"n%	c #D90001",
"o%	c #D60004",
"p%	c #D20003",
"q%	c #D60000",
"r%	c #D00B14",
"s%	c #BD1117",
"t%	c #970403",
"u%	c #D20A00",
"v%	c #CD262C",
"w%	c #A10F14",
"x%	c #A00000",
"y%	c #C30F10",
"z%	c #D01311",
"A%	c #D90006",
"B%	c #D40004",
"C%	c #C90006",
"D%	c #C00004",
"E%	c #D1171F",
"F%	c #A40007",
"G%	c #990206",
"H%	c #A42226",
"I%	c #890A0E",
"J%	c #94090C",
"K%	c #BE191F",
"L%	c #CF0010",
"M%	c #DB000C",
"N%	c #D4000A",
"O%	c #B90413",
"P%	c #AD0514",
"Q%	c #99020E",
"R%	c #93010B",
"S%	c #BB0009",
"T%	c #A6181E",
"U%	c #900D14",
"V%	c #A7040C",
"W%	c #B2010B",
"X%	c #B1020B",
"Y%	c #AD040E",
"Z%	c #AC0915",
"`%	c #A70A17",
" &	c #9C020F",
".&	c #8D000B",
"                                                                            ",
"                                                                            ",
"                                                                            ",
"                                                                            ",
"                              . + @ # $ % & *                               ",
"                          = - ; > , ' ) ! ~ { ] ^ /                         ",
"                      ( _ : < [ } | 1 2 3 4 5 6 7 8 9                       ",
"                    0 a b c d e f g h i j k l m n o p q r                   ",
"                  s t u v w x y z A B C D E F F G H I J K L                 ",
"                M N O P Q R S T U V U W X Y Z `  ...+.@.#.$.%.              ",
"              &.*.=.-.;.>.,.'.).!.~.{.].^./.(._.:.<.[.}.|.1.2.3.            ",
"            4.5.6.7.8.9.0.a.b.c.d.e.e.f.g.h.i.j.k.l.m.n.o.p.q.r.            ",
"            s.t.u.v.w.x.y.k.z.A.B.C.C.C.C.D.E.F.G.H.I.J.K.L.M.N.O.          ",
"          P.Q.R.S.T.U.I.V.W.X.Y.Z.`. +.+++@+@+#+$+%+&+*+=+-+;+>+,+          ",
"          '+)+!+~+{+]+^+/+(+_+:+<+[+}+|+1+2+3+4+5+6+7+8+9+0+a+b+c+d+        ",
"        e+f+g+h+i+j+k+l+m+n+o+p+q+r+s+t+u+v+w+x+y+z+A+B+C+D+E+F+G+H+        ",
"        I+J+K+L+M+k+N+O+P+Q+R+S+T+T+U+V+W+X+Y+Z+`+ @.@+@@@#@$@%@&@*@        ",
"        =@-@;@>@,@'@)@!@~@{@]@^@/@(@/@_@:@:@<@[@}@|@1@2@3@4@5@6@7@8@        ",
"        9@0@a@b@c@d@e@f@g@h@i@j@k@l@m@n@o@o@p@q@r@s@t@u@v@w@x@y@z@A@B@      ",
"        C@D@E@F@G@H@I@J@K@L@M@N@O@P@Q@Q@R@S@T@U@V@W@X@Y@Z@`@ #.#+#@###      ",
"        $#%#&#*#=#-#-#;#>#,#'#)#!#~#{#]#^#/#(#_#:#<#<#[#}#|#1#2#3#4#        ",
"        5#6#7#8#9#0#0#a#b#c#d#e#f#g#h#i#j#k#l#m#n#o#p#q#r#s#t#u#v#w#        ",
"        x#y#z#A#B#C#D#E#F#G#H#I#J#K#L#M#N#O#O#P#Q#R#S#T#E#T#T#U#V#W#        ",
"        X#Y#Z#`# $.$.$D#+$@$#$$$J#%$&$*$O#=$P#-$;$T#>$,$.$>$>$'$)$!$        ",
"          ~${$]$^$/$/$($_$:$<$[$}$|$1$2$3$4$5$R#6$7$8$>$9$0$a$b$c$          ",
"          d$e$f$g$h$i$j$6$k$l$m$n$U#o$p$q$r$5$s$t$u$>$v$w$/$x$y$z$          ",
"            A$B$C$D$E$F$G$H$I$i#U#J$K$q$L$r$M$/$N$/$N$O$P$Q$R$S$T$          ",
"            U$V$W$X$Y$Z$`$ %.%6$M#1$+%@%#%$%R#a$%%u$&%*%=%-%;%>%            ",
"              ,%'%)%!%~%{%]%^%D#/%(%N#P#_%M$:%>$.$<%[%}%|%1%2%              ",
"                3%4%5%6%7%8%9%0%a%*%I$b%-$R#a$D#c%a$d%e%f%g%h%              ",
"                  i%j%k%l%{%{%m%n%o%p%E#;$/$>$q%&%{%r%s%t%u%                ",
"                    v%w%x%y%z%8%o%A%B%*%I$F#F#C%D%E%F%G%                    ",
"                        H%I%J%K%L%M%N%d%$$&@O%P%Q%R%S%                      ",
"                            T%U%V%W%X%Y%Z%`% &.&                            ",
"                                                                            ",
"                                                                            ",
"                                                                            ",
"                                                                            "};
