/* XPM */
static char * valid_xpm[] = {
"48 48 819 2",
"  	c None",
". 	c #2C872D",
"+ 	c #327533",
"@ 	c #7DDB6D",
"# 	c #427F3B",
"$ 	c #357334",
"% 	c #2F722D",
"& 	c #3F7736",
"* 	c #4FAD42",
"= 	c #5E8C62",
"- 	c #3B6F3E",
"; 	c #7AA671",
"> 	c #C8FBC0",
", 	c #2A6D2A",
"' 	c #529353",
") 	c #4A9F3E",
"! 	c #5FA255",
"~ 	c #617F5D",
"{ 	c #4B754F",
"] 	c #AAD7AC",
"^ 	c #EAFFE3",
"/ 	c #E0FFD8",
"( 	c #AEE9AF",
"_ 	c #3D783E",
": 	c #35612E",
"< 	c #549645",
"[ 	c #4DC143",
"} 	c #538854",
"| 	c #588358",
"1 	c #B9D2B4",
"2 	c #EDFFE8",
"3 	c #DFFFE3",
"4 	c #DBFFDE",
"5 	c #EDFFE4",
"6 	c #BCE2B3",
"7 	c #588F58",
"8 	c #255E27",
"9 	c #649D5C",
"0 	c #5FCF50",
"a 	c #4C9544",
"b 	c #50914F",
"c 	c #ABD9AA",
"d 	c #E3F7DC",
"e 	c #E7F4E2",
"f 	c #DFF8E3",
"g 	c #D9F5DC",
"h 	c #E5FDDD",
"i 	c #DCFDD2",
"j 	c #B5EFB4",
"k 	c #539452",
"l 	c #32682C",
"m 	c #3C8231",
"n 	c #5EAF51",
"o 	c #45933D",
"p 	c #4DA044",
"q 	c #9CD892",
"r 	c #DDFFD7",
"s 	c #DCF9DB",
"t 	c #D9EADA",
"u 	c #EAEDE4",
"v 	c #E2EBDA",
"w 	c #CFF1D0",
"x 	c #D8FFD6",
"y 	c #D8FFCE",
"z 	c #9DDA94",
"A 	c #5BA357",
"B 	c #297426",
"C 	c #2D8C26",
"D 	c #6DB654",
"E 	c #528646",
"F 	c #499A3D",
"G 	c #9FF395",
"H 	c #D4FFC8",
"I 	c #CCF2C3",
"J 	c #CEEBCF",
"K 	c #D6E7D5",
"L 	c #DCDED3",
"M 	c #E2EBD6",
"N 	c #C4EDC1",
"O 	c #BAF4B7",
"P 	c #C0FCB4",
"Q 	c #C2FFB6",
"R 	c #9BEE96",
"S 	c #2E822C",
"T 	c #206A1B",
"U 	c #66C95F",
"V 	c #97CA8F",
"W 	c #6DBC5D",
"X 	c #5B9B41",
"Y 	c #608E4E",
"Z 	c #72AC60",
"` 	c #A6EF96",
" .	c #BAFFAF",
"..	c #BBF3B2",
"+.	c #BDE2B6",
"@.	c #DBEBD1",
"#.	c #D6E2CE",
"$.	c #C4D8BF",
"%.	c #CDEBC5",
"&.	c #C6F2B7",
"*.	c #B2EFA2",
"=.	c #B6FFAA",
"-.	c #98EF8E",
";.	c #56AA4C",
">.	c #34822C",
",.	c #367E32",
"'.	c #4E9F4C",
").	c #83FF71",
"!.	c #97CF8E",
"~.	c #528D49",
"{.	c #538C48",
"].	c #428F32",
"^.	c #549A31",
"/.	c #5D8F47",
"(.	c #71A759",
"_.	c #ABE996",
":.	c #C5FFB4",
"<.	c #A6E49B",
"[.	c #B2E3AB",
"}.	c #C7EAC0",
"|.	c #C8D6BD",
"1.	c #CBD9C0",
"2.	c #CBE9C3",
"3.	c #B4E1AA",
"4.	c #BEF7AA",
"5.	c #B3FD9E",
"6.	c #89E97B",
"7.	c #46AA3A",
"8.	c #207615",
"9.	c #26711C",
"0.	c #286925",
"a.	c #4B984A",
"b.	c #88CA7E",
"c.	c #478F3B",
"d.	c #57A14A",
"e.	c #458D39",
"f.	c #4A883D",
"g.	c #519741",
"h.	c #579B35",
"i.	c #5C8B44",
"j.	c #79B05F",
"k.	c #B1F097",
"l.	c #B0EE98",
"m.	c #ABE39C",
"n.	c #ACDCA2",
"o.	c #C4E8BC",
"p.	c #C7E1BE",
"q.	c #B5C8AA",
"r.	c #C0D8B4",
"s.	c #C9EEBA",
"t.	c #AAE299",
"u.	c #A4F28F",
"v.	c #84E36F",
"w.	c #40A82D",
"x.	c #1A810B",
"y.	c #2A821E",
"z.	c #206B19",
"A.	c #094007",
"B.	c #3A8B3A",
"C.	c #69B65B",
"D.	c #489138",
"E.	c #4D9A3A",
"F.	c #9CE788",
"G.	c #98DE85",
"H.	c #68A758",
"I.	c #528743",
"J.	c #77AD69",
"K.	c #63A242",
"L.	c #5B8F44",
"M.	c #78B25E",
"N.	c #A7E88C",
"O.	c #B0F394",
"P.	c #AAEA93",
"Q.	c #ACE19D",
"R.	c #BFEAB5",
"S.	c #B5D6A9",
"T.	c #B1CDA4",
"U.	c #C4E3B7",
"V.	c #BCE3AC",
"W.	c #A7DB91",
"X.	c #AAF191",
"Y.	c #86E86D",
"Z.	c #3EAC25",
"`.	c #1F8D06",
" +	c #21870A",
".+	c #186E0D",
"++	c #23651D",
"@+	c #1C491A",
"#+	c #60A94F",
"$+	c #398022",
"%+	c #5CA740",
"&+	c #9EE680",
"*+	c #9FDF81",
"=+	c #B9F09D",
"-+	c #AADC93",
";+	c #6FA15C",
">+	c #538B44",
",+	c #74B86A",
"'+	c #64AD3F",
")+	c #589B3A",
"!+	c #77C25B",
"~+	c #9AE580",
"{+	c #9EEA86",
"]+	c #A0EA89",
"^+	c #AAEC95",
"/+	c #ABE29E",
"(+	c #ADDDA3",
"_+	c #AED9A1",
":+	c #B0DCA1",
"<+	c #AEE09B",
"[+	c #A6E18D",
"}+	c #96E178",
"|+	c #85E464",
"1+	c #37A915",
"2+	c #2AA308",
"3+	c #239603",
"4+	c #167C00",
"5+	c #0C5800",
"6+	c #25591C",
"7+	c #6AAC61",
"8+	c #458E34",
"9+	c #5AAC3E",
"0+	c #8BDE6C",
"a+	c #94E073",
"b+	c #A5E285",
"c+	c #99CD7B",
"d+	c #9ECC84",
"e+	c #A2D48D",
"f+	c #7BB86A",
"g+	c #4F9B41",
"h+	c #60C052",
"i+	c #5BA335",
"j+	c #64AD42",
"k+	c #76C655",
"l+	c #97EB79",
"m+	c #A1F385",
"n+	c #9BE983",
"o+	c #9BE586",
"p+	c #9EE089",
"q+	c #A2DC90",
"r+	c #A8E095",
"s+	c #9CDA87",
"t+	c #A1E487",
"u+	c #9EEC7F",
"v+	c #75D152",
"w+	c #42AB1D",
"x+	c #33A40E",
"y+	c #2C9E0A",
"z+	c #127900",
"A+	c #025800",
"B+	c #317020",
"C+	c #69A55D",
"D+	c #4F953F",
"E+	c #53AA3F",
"F+	c #80DF67",
"G+	c #97F57D",
"H+	c #7FD363",
"I+	c #93D979",
"J+	c #92CD79",
"K+	c #A2D48B",
"L+	c #AEE298",
"M+	c #94D27F",
"N+	c #66B051",
"O+	c #55AB3E",
"P+	c #68B655",
"Q+	c #72B253",
"R+	c #62A544",
"S+	c #78C458",
"T+	c #99EC7A",
"U+	c #A3F586",
"V+	c #95E479",
"W+	c #93DE79",
"X+	c #9EE184",
"Y+	c #9CDC85",
"Z+	c #9DDD86",
"`+	c #94D67C",
" @	c #90DA77",
".@	c #94E678",
"+@	c #88E169",
"@@	c #68C747",
"#@	c #46AA23",
"$@	c #369A14",
"%@	c #3B9C1B",
"&@	c #1D7401",
"*@	c #135A00",
"=@	c #397425",
"-@	c #599241",
";@	c #387D24",
">@	c #3E9427",
",@	c #63C749",
"'@	c #76E15D",
")@	c #80EB69",
"!@	c #77D960",
"~@	c #85D66F",
"{@	c #97DC81",
"]@	c #9CD785",
"^@	c #94CD7C",
"/@	c #96D57A",
"(@	c #97DF79",
"_@	c #76C953",
":@	c #51A033",
"<@	c #6AA85A",
"[@	c #55C63C",
"}@	c #79BA62",
"|@	c #57993F",
"1@	c #93DE77",
"2@	c #95E778",
"3@	c #9BF07B",
"4@	c #92E674",
"5@	c #88D669",
"6@	c #92DA74",
"7@	c #9FE082",
"8@	c #98DA79",
"9@	c #93DA74",
"0@	c #8CDC6B",
"a@	c #8AE468",
"b@	c #81E55E",
"c@	c #60CB3D",
"d@	c #3AA716",
"e@	c #359D14",
"f@	c #49A72B",
"g@	c #23700A",
"h@	c #1D5808",
"i@	c #356422",
"j@	c #569932",
"k@	c #419420",
"l@	c #2B900C",
"m@	c #32A514",
"n@	c #40BB25",
"o@	c #64DE4F",
"p@	c #73E460",
"q@	c #7FE06C",
"r@	c #83D66E",
"s@	c #86CD6D",
"t@	c #8DD071",
"u@	c #98DC75",
"v@	c #97E16E",
"w@	c #84D656",
"x@	c #6FC445",
"y@	c #5BAF3D",
"z@	c #65B64D",
"A@	c #50E721",
"B@	c #51E71C",
"C@	c #68B150",
"D@	c #67B14E",
"E@	c #80CF64",
"F@	c #93EA77",
"G@	c #87E068",
"H@	c #86E065",
"I@	c #8BE369",
"J@	c #8FDF6C",
"K@	c #98E175",
"L@	c #9DE079",
"M@	c #90D56A",
"N@	c #85D75B",
"O@	c #92F066",
"P@	c #85EF59",
"Q@	c #59CD2E",
"R@	c #3DB716",
"S@	c #3DB41A",
"T@	c #389F18",
"U@	c #297C10",
"V@	c #164E03",
"W@	c #385E28",
"X@	c #47901D",
"Y@	c #45A01D",
"Z@	c #2E9A09",
"`@	c #25A105",
" #	c #1EA000",
".#	c #3CBF21",
"+#	c #4FCB37",
"@#	c #65D54D",
"##	c #75D75C",
"$#	c #84DB68",
"%#	c #8ADA67",
"&#	c #88D85F",
"*#	c #85D856",
"=#	c #86DD52",
"-#	c #85E351",
";#	c #75DD4A",
">#	c #4CB525",
",#	c #5EC338",
"'#	c #5ED92F",
")#	c #69C348",
"!#	c #5AB13C",
"~#	c #76CF59",
"{#	c #8FEB6F",
"]#	c #83E463",
"^#	c #76DA54",
"/#	c #7DDF58",
"(#	c #88E862",
"_#	c #8BE260",
":#	c #8EE064",
"<#	c #94DD67",
"[#	c #8CDB5E",
"}#	c #83E051",
"|#	c #71DB3D",
"1#	c #58CB26",
"2#	c #46BF18",
"3#	c #40BA17",
"4#	c #3AAC18",
"5#	c #238308",
"6#	c #0F5500",
"7#	c #3A6B29",
"8#	c #2D7504",
"9#	c #358E0E",
"0#	c #3DA616",
"a#	c #44BE1E",
"b#	c #1EA300",
"c#	c #21AB00",
"d#	c #2DB50B",
"e#	c #3DBB1C",
"f#	c #5DD13A",
"g#	c #73DC4C",
"h#	c #70D247",
"i#	c #70CF41",
"j#	c #7CDB49",
"k#	c #82E54C",
"l#	c #7AE442",
"m#	c #78EE40",
"n#	c #63DB2C",
"o#	c #4FBF1B",
"p#	c #47B217",
"q#	c #59BF2F",
"r#	c #7CDE55",
"s#	c #85EA60",
"t#	c #75DB51",
"u#	c #81EA5A",
"v#	c #79E551",
"w#	c #7CE950",
"x#	c #7DE74F",
"y#	c #77D944",
"z#	c #7BD947",
"A#	c #84D84C",
"B#	c #7BD540",
"C#	c #70D634",
"D#	c #4ABA10",
"E#	c #3EB209",
"F#	c #4CBF1C",
"G#	c #40AC18",
"H#	c #218201",
"I#	c #2D7917",
"J#	c #2F701D",
"K#	c #256603",
"L#	c #3F8D1D",
"M#	c #3B9B16",
"N#	c #41B41B",
"O#	c #26A500",
"P#	c #2CB601",
"Q#	c #32BC04",
"R#	c #2BB200",
"S#	c #32B203",
"T#	c #43BA12",
"U#	c #55C823",
"V#	c #64D231",
"W#	c #6AD935",
"X#	c #6EDD38",
"Y#	c #6EE334",
"Z#	c #65E222",
"`#	c #78F734",
" $	c #6BE32C",
".$	c #5ED023",
"+$	c #77E342",
"@$	c #81EA50",
"#$	c #75DF47",
"$$	c #78E54C",
"%$	c #74E648",
"&$	c #74E845",
"*$	c #78ED46",
"=$	c #72E63B",
"-$	c #6CDC32",
";$	c #73DD35",
">$	c #71D330",
",$	c #58BD17",
"'$	c #48B609",
")$	c #4EBE12",
"!$	c #5CC626",
"~$	c #51B423",
"{$	c #2A8005",
"]$	c #206604",
"^$	c #35791D",
"/$	c #1F6A03",
"($	c #25610E",
"_$	c #287609",
":$	c #46A81F",
"<$	c #48BB18",
"[$	c #38B803",
"}$	c #31B900",
"|$	c #30BA00",
"1$	c #37C100",
"2$	c #3BC100",
"3$	c #3BBE00",
"4$	c #3FBF08",
"5$	c #48C715",
"6$	c #4DCC1B",
"7$	c #4CCC13",
"8$	c #5DDD14",
"9$	c #61E013",
"0$	c #6AE221",
"a$	c #6FE02C",
"b$	c #73DE36",
"c$	c #73DD3B",
"d$	c #73DF3E",
"e$	c #72E13D",
"f$	c #68DE32",
"g$	c #65E02F",
"h$	c #5CDA21",
"i$	c #50CE12",
"j$	c #50CA0D",
"k$	c #56CD0F",
"l$	c #59C90F",
"m$	c #51C00A",
"n$	c #56C717",
"o$	c #66D12D",
"p$	c #54AF23",
"q$	c #2B7502",
"r$	c #39701B",
"s$	c #3E7D1F",
"t$	c #2C6E16",
"u$	c #417B29",
"v$	c #2E7D0A",
"w$	c #399B0A",
"x$	c #45B70A",
"y$	c #42C102",
"z$	c #36BB00",
"A$	c #35BF00",
"B$	c #39C500",
"C$	c #3EC900",
"D$	c #3EC803",
"E$	c #3CC807",
"F$	c #40CB10",
"G$	c #4AD112",
"H$	c #4CCD01",
"I$	c #54CF02",
"J$	c #5ED111",
"K$	c #64D21B",
"L$	c #69D126",
"M$	c #6AD12A",
"N$	c #6BD42F",
"O$	c #6AD72E",
"P$	c #6FE433",
"Q$	c #60DC22",
"R$	c #56D514",
"S$	c #51D30E",
"T$	c #54D20C",
"U$	c #53CF09",
"V$	c #55CD0B",
"W$	c #59CB13",
"X$	c #6DD832",
"Y$	c #4CA91A",
"Z$	c #317A07",
"`$	c #457624",
" %	c #446E20",
".%	c #3D7526",
"+%	c #3D751E",
"@%	c #358009",
"#%	c #4AA911",
"$%	c #57C514",
"%%	c #50CA07",
"&%	c #3EC200",
"*%	c #3CCA00",
"=%	c #3DCF00",
"-%	c #39CC02",
";%	c #3ACC09",
">%	c #46D20F",
",%	c #4AC900",
"'%	c #56CA05",
")%	c #60CD10",
"!%	c #68CF1C",
"~%	c #6ECF27",
"{%	c #70D12C",
"]%	c #72D431",
"^%	c #72D932",
"/%	c #69DA2A",
"(%	c #6CE22A",
"_%	c #67E424",
":%	c #5CDA17",
"<%	c #54D20E",
"[%	c #59D211",
"}%	c #63DA1C",
"|%	c #6DDB2C",
"1%	c #5CB92C",
"2%	c #378110",
"3%	c #3A6F1B",
"4%	c #3D6C17",
"5%	c #50872F",
"6%	c #4F862B",
"7%	c #438A10",
"8%	c #4CA610",
"9%	c #65D022",
"0%	c #50C908",
"a%	c #40C300",
"b%	c #3CC700",
"c%	c #3FCE00",
"d%	c #3FD305",
"e%	c #3FD208",
"f%	c #44D109",
"g%	c #57D20F",
"h%	c #63D315",
"i%	c #6DD621",
"j%	c #76D92E",
"k%	c #7DD936",
"l%	c #80DC3D",
"m%	c #83DF40",
"n%	c #83E341",
"o%	c #74DB32",
"p%	c #7CEA3B",
"q%	c #77EA35",
"r%	c #66DC24",
"s%	c #6BDE29",
"t%	c #79EA38",
"u%	c #70DE31",
"v%	c #5DBD25",
"w%	c #327F0F",
"x%	c #4E8436",
"y%	c #3F7B1E",
"z%	c #457E1A",
"A%	c #4F822A",
"B%	c #367906",
"C%	c #56AD20",
"D%	c #5BC21D",
"E%	c #59CF19",
"F%	c #4FCE0D",
"G%	c #44CB02",
"H%	c #43CE01",
"I%	c #46D406",
"J%	c #4CD50B",
"K%	c #60DB1B",
"L%	c #6CDB25",
"M%	c #76DE31",
"N%	c #7FDF3D",
"O%	c #86DF45",
"P%	c #8BE14A",
"Q%	c #8EE44D",
"R%	c #8EE74F",
"S%	c #91EF51",
"T%	c #83E544",
"U%	c #79DF3D",
"V%	c #82E847",
"W%	c #91F459",
"X%	c #87E750",
"Y%	c #5BB829",
"Z%	c #37850E",
"`%	c #4E823A",
" &	c #518940",
".&	c #447A18",
"+&	c #538431",
"@&	c #43871A",
"#&	c #55AB24",
"$&	c #67D02E",
"%&	c #64DA26",
"&&	c #51CF0C",
"*&	c #44C900",
"=&	c #4DD302",
"-&	c #5BDE14",
";&	c #67E126",
">&	c #71E134",
",&	c #7CE540",
"'&	c #87E64A",
")&	c #90E552",
"!&	c #95E757",
"~&	c #9AE95C",
"{&	c #9BED5D",
"]&	c #9AED5D",
"^&	c #8CE452",
"/&	c #94ED5D",
"(&	c #A5FD73",
"_&	c #8EE361",
":&	c #5AAA2F",
"<&	c #418B1A",
"[&	c #508C36",
"}&	c #619E53",
"|&	c #5A8F3C",
"1&	c #51992D",
"2&	c #56B126",
"3&	c #6AD330",
"4&	c #69DD24",
"5&	c #55D107",
"6&	c #56D401",
"7&	c #65E417",
"8&	c #6DE62F",
"9&	c #74E83F",
"0&	c #81EB49",
"a&	c #8EEE56",
"b&	c #9AEF60",
"c&	c #A2F068",
"d&	c #A7F36D",
"e&	c #ACF570",
"f&	c #9DE965",
"g&	c #A7F472",
"h&	c #B1FD81",
"i&	c #9BE670",
"j&	c #65AA40",
"k&	c #418123",
"l&	c #639D49",
"m&	c #66AD4C",
"n&	c #317810",
"o&	c #568C3C",
"p&	c #40851A",
"q&	c #66BC33",
"r&	c #84E444",
"s&	c #72DB26",
"t&	c #63D211",
"u&	c #6FDF21",
"v&	c #70E137",
"w&	c #77E546",
"x&	c #86EB4F",
"y&	c #91EF59",
"z&	c #9EF163",
"A&	c #A8F46E",
"B&	c #B0F67A",
"C&	c #B4F881",
"D&	c #B4F482",
"E&	c #C2FF94",
"F&	c #AEEB83",
"G&	c #71AA4B",
"H&	c #4B7C2A",
"I&	c #669149",
"J&	c #60AA3B",
"K&	c #5A8A3B",
"L&	c #498221",
"M&	c #64A82F",
"N&	c #8DDC4D",
"O&	c #92E849",
"P&	c #7CD636",
"Q&	c #81DF4D",
"R&	c #8CE95A",
"S&	c #95EF59",
"T&	c #9EF45D",
"U&	c #ABFA69",
"V&	c #B1F874",
"W&	c #B9F987",
"X&	c #C9FF9E",
"Y&	c #D5FFAE",
"Z&	c #B7E491",
"`&	c #80AA56",
" *	c #5B8032",
".*	c #6C8A46",
"+*	c #5E9326",
"@*	c #5A8936",
"#*	c #598C2F",
"$*	c #70AC3A",
"%*	c #8FD551",
"&*	c #9BE85E",
"**	c #8DDF56",
"=*	c #87DB51",
"-*	c #99EC5C",
";*	c #AEFD6E",
">*	c #B2FC73",
",*	c #BBFF83",
"'*	c #CBFF9A",
")*	c #CDFFA3",
"!*	c #BEE999",
"~*	c #80A45E",
"{*	c #5C7939",
"]*	c #7A9356",
"^*	c #578C30",
"/*	c #588E2E",
"(*	c #74AF41",
"_*	c #97DC5F",
":*	c #ABFA6B",
"<*	c #9EF05D",
"[*	c #A5F36B",
"}*	c #ABF677",
"|*	c #B2F780",
"1*	c #D3FFA0",
"2*	c #DEFFA9",
"3*	c #BFEF8B",
"4*	c #759F49",
"5*	c #668742",
"6*	c #6F8955",
"7*	c #518B28",
"8*	c #62943F",
"9*	c #6CA73B",
"0*	c #9AE258",
"a*	c #AEFC6A",
"b*	c #B0F878",
"c*	c #A6E976",
"d*	c #BCFA8F",
"e*	c #D5FFA7",
"f*	c #B7EA81",
"g*	c #7EAC49",
"h*	c #527823",
"i*	c #6D9444",
"j*	c #427C25",
"k*	c #5A8937",
"l*	c #68A92B",
"m*	c #A5E960",
"n*	c #BFFF87",
"o*	c #C7FF98",
"p*	c #DCFFB2",
"q*	c #BCED91",
"r*	c #7AA74A",
"s*	c #628A32",
"t*	c #628F27",
"u*	c #4C8129",
"v*	c #5D912C",
"w*	c #83BE46",
"x*	c #A3DB70",
"y*	c #C3F795",
"z*	c #C7F59D",
"A*	c #84AF5D",
"B*	c #62893A",
"C*	c #5F9228",
"D*	c #5A922F",
"E*	c #709E44",
"F*	c #76A346",
"G*	c #8DB85E",
"H*	c #80A754",
"I*	c #5B8234",
"J*	c #3C6F10",
"K*	c #6F9C4E",
"L*	c #7EA258",
"M*	c #84A65A",
"N*	c #638538",
"O*	c #3D7104",
"P*	c #699246",
"Q*	c #6A8749",
"R*	c #3F690D",
"                                                                                                ",
"                                                                                                ",
"                                                                                                ",
"                                                                                                ",
"                                                                            . + @               ",
"                                                                          # $ % & *             ",
"                                                                        = - ; > , ' )           ",
"                                                                    ! ~ { ] ^ / ( _ : <         ",
"                                                                  [ } | 1 2 3 4 5 6 7 8 9       ",
"                                                                0 a b c d e f g h i j k l m     ",
"                                                              n o p q r s t u v w x y z A B C   ",
"                                                            D E F G H I J K L M N O P Q R S T U ",
"                V W                                       X Y Z `  ...+.@.#.$.%.&.*.=.-.;.>.,.'.",
"            ).!.~.{.].                                  ^./.(._.:.<.[.}.|.1.2.3.4.5.6.7.8.9.0.a.",
"            b.c.d.e.f.g.                              h.i.j.k.l.m.n.o.p.q.r.s.t.u.v.w.x.y.z.A.B.",
"          C.D.E.F.G.H.I.J.                          K.L.M.N.O.P.Q.R.S.T.U.V.W.X.Y.Z.`. +.+++@+  ",
"        #+$+%+&+*+=+-+;+>+,+                      '+)+!+~+{+]+^+/+(+_+:+<+[+}+|+1+2+3+4+5+6+    ",
"      7+8+9+0+a+b+c+d+e+f+g+h+                  i+j+k+l+m+n+o+p+q+m.r+s+t+u+v+w+x+y+z+A+B+      ",
"    C+D+E+F+G+H+I+J+K+L+M+N+O+P+              Q+R+S+T+U+V+W+X+Y+Z+`+ @.@+@@@#@$@%@&@*@=@        ",
"  -@;@>@,@'@)@!@~@{@]@^@/@(@_@:@<@[@        }@|@1@2@3@4@5@6@7@8@9@0@a@b@c@d@e@f@g@h@i@          ",
"  j@k@l@m@n@o@p@q@r@s@t@u@v@w@x@y@z@A@  B@C@D@E@F@G@H@I@J@K@L@M@N@O@P@Q@R@S@T@U@V@W@            ",
"  X@Y@Z@`@ #.#+#@###$#%#&#*#=#-#;#>#,#'#)#!#~#{#]#^#/#(#_#:#<#[#}#|#1#2#3#4#5#6#7#              ",
"  8#9#0#a#b#c#d#e#f#g#h#i#j#k#l#m#n#o#p#q#r#s#t#u#v#w#x#y#z#A#B#C#D#E#F#G#H#I#J#                ",
"  K#L#M#N#O#P#Q#R#S#T#U#V#W#X#Y#Z#`# $.$+$@$#$$$%$&$*$=$-$;$>$,$'$)$!$~${$]$^$                  ",
"  /$($_$:$<$[$}$|$1$2$3$4$5$6$7$8$9$0$a$b$c$d$e$f$g$h$i$j$k$l$m$n$o$p$q$r$s$                    ",
"    t$u$v$w$x$y$z$A$B$C$D$E$F$G$H$I$J$K$L$M$N$O$P$Q$R$S$T$U$V$W$X$Y$Z$`$ %                      ",
"      .%+%@%#%$%%%&%1$*%=%-%;%>%,%'%)%!%~%{%]%^%/%(%_%:%<%[%}%|%1%2%3%4%                        ",
"        5%6%7%8%9%0%a%b%c%d%e%f%g%h%i%j%k%l%m%n%o%p%q%r%s%t%u%v%w%x%y%                          ",
"          z%A%B%C%D%E%F%G%H%I%J%K%L%M%N%O%P%Q%R%S%T%U%V%W%X%Y%Z%`% &                            ",
"            .&+&@&#&$&%&&&*&=&-&;&>&,&'&)&!&~&{&]&^&/&(&_&:&<&[&}&                              ",
"                |&1&2&3&4&5&6&7&8&9&0&a&b&c&d&e&f&g&h&i&j&k&l&m&                                ",
"                n&o&p&q&r&s&t&u&v&w&x&y&z&A&B&C&D&E&F&G&H&I&J&                                  ",
"                    K&L&M&N&O&P&Q&R&S&T&U&V&W&X&Y&Z&`& *.*+*                                    ",
"                      @*#*$*%*&***=*-*;*>*,*'*)*!*~*{*]*                                        ",
"                        ^*/*(*_*:*<*[*}*|*1*2*3*4*5*6*                                          ",
"                          7*8*9*0*a*b*c*d*e*f*g*h*i*                                            ",
"                            j*k*l*m*n*o*p*q*r*s*t*                                              ",
"                              u*v*w*x*y*z*A*B*C*                                                ",
"                                D*E*F*G*H*I*J*                                                  ",
"                                  K*L*M*N*O*                                                    ",
"                                    P*Q*R*                                                      ",
"                                                                                                ",
"                                                                                                ",
"                                                                                                ",
"                                                                                                ",
"                                                                                                ",
"                                                                                                ",
"                                                                                                "};
