/* XPM */
static char * valid_xpm[] = {
"32 32 671 2",
"  	c None",
". 	c #001604",
"+ 	c #000F04",
"@ 	c #051007",
"# 	c #08130A",
"$ 	c #0D1A0E",
"% 	c #0A180B",
"& 	c #000C00",
"* 	c #001C02",
"= 	c #001702",
"- 	c #213727",
"; 	c #6F8174",
"> 	c #C1CEC4",
", 	c #E3EDE5",
"' 	c #F2FCF4",
") 	c #E4EEE5",
"! 	c #D9E3DA",
"~ 	c #ADB9B0",
"{ 	c #4C564C",
"] 	c #1E271E",
"^ 	c #09110B",
"/ 	c #95FFAC",
"( 	c #F8FFFA",
"_ 	c #F9FFFD",
": 	c #F8FFFB",
"< 	c #F1FDF3",
"[ 	c #F2FEF4",
"} 	c #F9FFFA",
"| 	c #F3FDF4",
"1 	c #C0C8C0",
"2 	c #475247",
"3 	c #051105",
"4 	c #DEFFE8",
"5 	c #F5FFF7",
"6 	c #F7FFFA",
"7 	c #F0F9F6",
"8 	c #E4EFE9",
"9 	c #F4FFF5",
"0 	c #EFFDF0",
"a 	c #F8FFF8",
"b 	c #E4F0E6",
"c 	c #A7B8AA",
"d 	c #2B3D2D",
"e 	c #85FF9B",
"f 	c #F5FFF6",
"g 	c #E5F5E8",
"h 	c #E5F2E8",
"i 	c #F0FDF3",
"j 	c #EDFAF1",
"k 	c #DDE8E0",
"l 	c #E0EBE5",
"m 	c #F3FEF6",
"n 	c #E4F2E5",
"o 	c #ECFDED",
"p 	c #EBFCEC",
"q 	c #E0F1E1",
"r 	c #DEEFDF",
"s 	c #EAFBEB",
"t 	c #EFFFF0",
"u 	c #B5C3B6",
"v 	c #809081",
"w 	c #3B533F",
"x 	c #9FFFBA",
"y 	c #D8E8DB",
"z 	c #D9EADA",
"A 	c #E2F4E4",
"B 	c #E3F5E7",
"C 	c #DAECDE",
"D 	c #DAEADF",
"E 	c #E3F3E8",
"F 	c #E8F5EC",
"G 	c #DFEFE4",
"H 	c #DEF1DE",
"I 	c #DAEFDC",
"J 	c #E2F8E3",
"K 	c #D8EED9",
"L 	c #E1F7E2",
"M 	c #F2FFF4",
"N 	c #A5B7A7",
"O 	c #77877A",
"P 	c #3F5A43",
"Q 	c #001402",
"R 	c #73BD77",
"S 	c #D4E5D5",
"T 	c #CEE3D0",
"U 	c #CCE1CE",
"V 	c #D6EDD9",
"W 	c #DBF2DE",
"X 	c #D4EBD7",
"Y 	c #CEE3D2",
"Z 	c #CFE4D3",
"` 	c #D7E9DB",
" .	c #D9EEDD",
"..	c #E2F7E4",
"+.	c #CBE3CB",
"@.	c #CFE9D0",
"#.	c #DFF9DE",
"$.	c #D3F0D4",
"%.	c #C3E0C2",
"&.	c #C1DEC0",
"*.	c #C3E0C4",
"=.	c #CEE8CF",
"-.	c #CCE4CE",
";.	c #ACC1AE",
">.	c #596C5A",
",.	c #C9E0CA",
"'.	c #D4ECD4",
").	c #C9E5CC",
"!.	c #CAE8CC",
"~.	c #C8E4CB",
"{.	c #C6E2C9",
"].	c #CDE9D0",
"^.	c #D7F0DA",
"/.	c #D0E9D4",
"(.	c #C2DBC5",
"_.	c #CEEAD1",
":.	c #C2E1C2",
"<.	c #CFEECF",
"[.	c #CEF0CF",
"}.	c #A9CBA8",
"|.	c #92B692",
"1.	c #95B995",
"2.	c #8FB38F",
"3.	c #8EB08F",
"4.	c #ADCCAD",
"5.	c #BBD5BC",
"6.	c #6E8370",
"7.	c #1E3A1F",
"8.	c #002100",
"9.	c #1E4D20",
"0.	c #B1D4B0",
"a.	c #BBD8BA",
"b.	c #BFE0C1",
"c.	c #B3D6B5",
"d.	c #C0E3C2",
"e.	c #C1E7C2",
"f.	c #BBDEBD",
"g.	c #BDE0C0",
"h.	c #C3E4C5",
"i.	c #C3E4C7",
"j.	c #BDDEBF",
"k.	c #C0E2C1",
"l.	c #C2E6C2",
"m.	c #BBE1BC",
"n.	c #99C29A",
"o.	c #7EA97E",
"p.	c #95C093",
"q.	c #B3DEB1",
"r.	c #B0DBAE",
"s.	c #81AA80",
"t.	c #90B691",
"u.	c #829E85",
"v.	c #3C523E",
"w.	c #264125",
"x.	c #9CB99B",
"y.	c #C4E6C3",
"z.	c #ABCFA9",
"A.	c #91BA92",
"B.	c #94BF94",
"C.	c #93BE93",
"D.	c #9CC99E",
"E.	c #B1DCB1",
"F.	c #BBE6BB",
"G.	c #B3DDB5",
"H.	c #A9D3AD",
"I.	c #B1D9B4",
"J.	c #C1E9C4",
"K.	c #B2DBB3",
"L.	c #BFEABF",
"M.	c #97C597",
"N.	c #70A070",
"O.	c #91C390",
"P.	c #CBFDC8",
"Q.	c #E2FFDF",
"R.	c #B5E5B3",
"S.	c #81AC7F",
"T.	c #ADD3AE",
"U.	c #A0C1A2",
"V.	c #354F36",
"W.	c #1B3A1D",
"X.	c #478045",
"Y.	c #204420",
"Z.	c #99BF98",
"`.	c #ABD4AA",
" +	c #9AC598",
".+	c #6F9F6F",
"++	c #A0D29F",
"@+	c #81B380",
"#+	c #78AD79",
"$+	c #88BA87",
"%+	c #A7D9A8",
"&+	c #B3E5B4",
"*+	c #A6D7A8",
"=+	c #A4D3A5",
"-+	c #AFDEB0",
";+	c #A4D4A4",
">+	c #A6D6A6",
",+	c #7AAC79",
"'+	c #84B983",
")+	c #D3FFD1",
"!+	c #D7FFD6",
"~+	c #B2ECB1",
"{+	c #C0FABF",
"]+	c #C0F7BE",
"^+	c #75A774",
"/+	c #9AC59A",
"(+	c #AFD5B0",
"_+	c #304E32",
":+	c #203E24",
"<+	c #507F4F",
"[+	c #365F33",
"}+	c #94C293",
"|+	c #94C494",
"1+	c #91C38E",
"2+	c #70A56F",
"3+	c #C4FBC2",
"4+	c #C1FBC0",
"5+	c #93CD92",
"6+	c #70AA70",
"7+	c #7BB57B",
"8+	c #97D099",
"9+	c #A2DBA4",
"0+	c #A0D6A2",
"a+	c #9AD09C",
"b+	c #A1D6A2",
"c+	c #83B882",
"d+	c #71A86F",
"e+	c #AFE9AE",
"f+	c #DCFFDA",
"g+	c #A5E3A2",
"h+	c #64A261",
"i+	c #85C382",
"j+	c #8BC789",
"k+	c #70A76E",
"l+	c #92C292",
"m+	c #A3CCA4",
"n+	c #264928",
"o+	c #1F4123",
"p+	c #417040",
"q+	c #3B6938",
"r+	c #86B883",
"s+	c #8EC38D",
"t+	c #8FC68C",
"u+	c #72AC71",
"v+	c #B1EDAF",
"w+	c #DBFFD8",
"x+	c #C4FFC1",
"y+	c #95D696",
"z+	c #6FB070",
"A+	c #72AF73",
"B+	c #8BC88C",
"C+	c #98D399",
"D+	c #92CC92",
"E+	c #95CC93",
"F+	c #72A970",
"G+	c #8DC98D",
"H+	c #CBFFCA",
"I+	c #B9FAB6",
"J+	c #71B46D",
"K+	c #5FA25B",
"L+	c #7EC17A",
"M+	c #6CAD69",
"N+	c #7DB97B",
"O+	c #89BE88",
"P+	c #8FBD8F",
"Q+	c #274D28",
"R+	c #254829",
"S+	c #295B26",
"T+	c #255A24",
"U+	c #6DA76C",
"V+	c #8BC98A",
"W+	c #84C782",
"X+	c #5EA45C",
"Y+	c #6FB76D",
"Z+	c #9AE296",
"`+	c #C9FFC7",
" @	c #CAFFC9",
".@	c #8BD28C",
"+@	c #63A663",
"@@	c #73B474",
"#@	c #8CC98E",
"$@	c #8CC78D",
"%@	c #79B079",
"&@	c #6FA96F",
"*@	c #BBF8BC",
"=@	c #D9FFD8",
"-@	c #83C981",
";@	c #5AA457",
">@	c #7DCA7A",
",@	c #83D07E",
"'@	c #78C275",
")@	c #8CD28A",
"!@	c #81B680",
"~@	c #2F5A2F",
"{@	c #305332",
"]@	c #033609",
"^@	c #285F28",
"/@	c #1D591D",
"(@	c #65A865",
"_@	c #6DB76C",
":@	c #6DBF6B",
"<@	c #6AC067",
"[@	c #61BA5E",
"}@	c #53AC50",
"|@	c #76CF75",
"1@	c #A9FDA8",
"2@	c #CDFFCD",
"3@	c #91DA93",
"4@	c #599B5D",
"5@	c #7CB980",
"6@	c #88C38D",
"7@	c #629866",
"8@	c #97D09B",
"9@	c #DBFFDC",
"0@	c #A5EBA5",
"a@	c #5DAC5B",
"b@	c #72CD6D",
"c@	c #6ECD69",
"d@	c #74CF70",
"e@	c #70C46C",
"f@	c #71BB6E",
"g@	c #61A260",
"h@	c #366B35",
"i@	c #255025",
"j@	c #0D4210",
"k@	c #2A672A",
"l@	c #286929",
"m@	c #4F974E",
"n@	c #65B763",
"o@	c #60B95D",
"p@	c #6CCC68",
"q@	c #5BC058",
"r@	c #4CB149",
"s@	c #54B452",
"t@	c #76D076",
"u@	c #BBFFBC",
"v@	c #C5FFC9",
"w@	c #84C689",
"x@	c #619B68",
"y@	c #659A6C",
"z@	c #76A97E",
"A@	c #C2F8C7",
"B@	c #D3FFD5",
"C@	c #85CC86",
"D@	c #5CB05B",
"E@	c #6BC969",
"F@	c #6ACF65",
"G@	c #66CD60",
"H@	c #65CA60",
"I@	c #68C763",
"J@	c #60B45C",
"K@	c #4C944A",
"L@	c #2F692E",
"M@	c #2A582A",
"N@	c #0B440E",
"O@	c #337433",
"P@	c #30712F",
"Q@	c #368033",
"R@	c #5BAF57",
"S@	c #53B150",
"T@	c #6BD066",
"U@	c #5CC356",
"V@	c #67CE63",
"W@	c #52B44F",
"X@	c #4FA94F",
"Y@	c #84D586",
"Z@	c #CFFFD3",
"`@	c #BEF8C5",
" #	c #74A77C",
".#	c #66946F",
"+#	c #9FCBA7",
"@#	c #E2FFE8",
"##	c #B8F3BD",
"$#	c #62A764",
"%#	c #60B25E",
"&#	c #6CCA69",
"*#	c #64CB5E",
"=#	c #5FC95A",
"-#	c #59C354",
";#	c #61C45A",
">#	c #52A84D",
",#	c #398336",
"'#	c #2D692B",
")#	c #2F5F2F",
"!#	c #003C03",
"~#	c #498C49",
"{#	c #276826",
"]#	c #2A7427",
"^#	c #4BA146",
"/#	c #4CAD46",
"(#	c #5CC657",
"_#	c #5CC956",
":#	c #70DC6C",
"<#	c #5EC55A",
"[#	c #52B050",
"}#	c #4FA250",
"|#	c #9BE09F",
"1#	c #D9FFE0",
"2#	c #AEDEB6",
"3#	c #8CB894",
"4#	c #CFFBD7",
"5#	c #E2FFE6",
"6#	c #8CC78F",
"7#	c #559C56",
"8#	c #64B862",
"9#	c #62C35C",
"0#	c #60CA5B",
"a#	c #58C751",
"b#	c #53C04B",
"c#	c #56BC4E",
"d#	c #439D3D",
"e#	c #337D2E",
"f#	c #2F6B2D",
"g#	c #275827",
"h#	c #003C02",
"i#	c #409540",
"j#	c #1F601E",
"k#	c #2A7727",
"l#	c #399234",
"m#	c #47AD40",
"n#	c #44B33B",
"o#	c #57CB50",
"p#	c #53C74C",
"q#	c #53C14E",
"r#	c #64C961",
"s#	c #4CA44D",
"t#	c #69B26B",
"u#	c #C6FFC9",
"v#	c #D7FFDB",
"w#	c #BCE9C2",
"x#	c #E3FFE8",
"y#	c #B3E7B6",
"z#	c #63A366",
"A#	c #61AE60",
"B#	c #65C061",
"C#	c #55BD4E",
"D#	c #5DCF56",
"E#	c #51C548",
"F#	c #4BBD41",
"G#	c #42AD39",
"H#	c #379330",
"I#	c #327F2D",
"J#	c #306A2D",
"K#	c #1C4C19",
"L#	c #003904",
"M#	c #276725",
"N#	c #317B2E",
"O#	c #308A2A",
"P#	c #42AA3B",
"Q#	c #32A629",
"R#	c #4AC642",
"S#	c #44C23D",
"T#	c #44BD3E",
"U#	c #62D05D",
"V#	c #5ABC57",
"W#	c #51A550",
"X#	c #90D690",
"Y#	c #D3FFD6",
"Z#	c #DFFFE1",
"`#	c #DCFFDD",
" $	c #7EBF7D",
".$	c #519E50",
"+$	c #6AC367",
"@$	c #60C659",
"#$	c #4DBF45",
"$$	c #56CF4C",
"%$	c #47C43C",
"&$	c #3FB634",
"*$	c #309D26",
"=$	c #2E8D27",
"-$	c #347F2D",
";$	c #30652D",
">$	c #154312",
",$	c #20691B",
"'$	c #357831",
")$	c #308729",
"!$	c #3AA231",
"~$	c #2FA624",
"{$	c #3CBC31",
"]$	c #43C837",
"^$	c #46C93B",
"/$	c #54C64D",
"($	c #4FB14A",
"_$	c #5EB45B",
":$	c #A3F0A2",
"<$	c #D4FFD3",
"[$	c #9DEC9B",
"}$	c #59AF54",
"|$	c #52B14B",
"1$	c #5DC856",
"2$	c #4EC545",
"3$	c #4AC93E",
"4$	c #42C635",
"5$	c #37BB2A",
"6$	c #34B127",
"7$	c #28971E",
"8$	c #338F2C",
"9$	c #367D31",
"0$	c #2D5C2A",
"a$	c #043302",
"b$	c #346F31",
"c$	c #36862F",
"d$	c #379A2D",
"e$	c #36AB29",
"f$	c #32B323",
"g$	c #31BC25",
"h$	c #4BD63F",
"i$	c #38BD2C",
"j$	c #49C73F",
"k$	c #56CA4F",
"l$	c #43AD3E",
"m$	c #68C962",
"n$	c #93F38F",
"o$	c #5EC457",
"p$	c #46B13D",
"q$	c #56C84C",
"r$	c #46C33B",
"s$	c #3CC02F",
"t$	c #47D038",
"u$	c #30BB20",
"v$	c #2AB01B",
"w$	c #30AD23",
"x$	c #2A961F",
"y$	c #3C9133",
"z$	c #3A7933",
"A$	c #13400F",
"B$	c #3B7D37",
"C$	c #35792E",
"D$	c #318B27",
"E$	c #39A72C",
"F$	c #2CAB1E",
"G$	c #38C129",
"H$	c #38C82B",
"I$	c #3DCA2E",
"J$	c #3CC730",
"K$	c #3CBF31",
"L$	c #3DBA32",
"M$	c #43BA3A",
"N$	c #46BD3D",
"O$	c #3CB931",
"P$	c #41C234",
"Q$	c #41C734",
"R$	c #3BC62D",
"S$	c #3AC72A",
"T$	c #3ACA2A",
"U$	c #37C427",
"V$	c #33B723",
"W$	c #279C18",
"X$	c #369A2A",
"Y$	c #337E2B",
"Z$	c #245A1D",
"`$	c #052F00",
" %	c #56914E",
".%	c #317F29",
"+%	c #309225",
"@%	c #3DB02F",
"#%	c #2CAD1D",
"$%	c #2FB820",
"%%	c #38C328",
"&%	c #3DC82D",
"*%	c #3DC630",
"=%	c #3CC22F",
"-%	c #3DBE30",
";%	c #3ABE2D",
">%	c #33BC26",
",%	c #3BC82B",
"'%	c #37C729",
")%	c #35C525",
"!%	c #34C023",
"~%	c #2CB11A",
"{%	c #259F16",
"]%	c #38A12A",
"^%	c #348A29",
"/%	c #2C6D24",
"(%	c #0E4206",
"_%	c #387C2F",
":%	c #2E7F23",
"<%	c #399B2E",
"[%	c #38A82C",
"}%	c #34AE27",
"|%	c #31B222",
"1%	c #2FB321",
"2%	c #2EB220",
"3%	c #2FB322",
"4%	c #30B623",
"5%	c #32BB23",
"6%	c #31BC21",
"7%	c #30BA1F",
"8%	c #2DB61E",
"9%	c #31B521",
"0%	c #38B627",
"a%	c #3AAD2A",
"b%	c #3AA12C",
"c%	c #3A902D",
"d%	c #276F1B",
"e%	c #0F4A06",
"f%	c #0B3D00",
"g%	c #2F7525",
"h%	c #317C27",
"i%	c #419837",
"j%	c #399D2D",
"k%	c #339F27",
"l%	c #2FA223",
"m%	c #2FA422",
"n%	c #2FA722",
"o%	c #2FA922",
"p%	c #2DAA20",
"q%	c #27A619",
"r%	c #27A516",
"s%	c #28A219",
"t%	c #2BA01C",
"u%	c #30A022",
"v%	c #369D28",
"w%	c #39942B",
"x%	c #3C8B30",
"y%	c #276A1C",
"z%	c #0C4802",
"A%	c #0C4200",
"B%	c #296A21",
"C%	c #377730",
"D%	c #3A8133",
"E%	c #398731",
"F%	c #3B9032",
"G%	c #3C9833",
"H%	c #3A9B30",
"I%	c #35982B",
"J%	c #2F9525",
"K%	c #2F9623",
"L%	c #349826",
"M%	c #3A9A2E",
"N%	c #409A36",
"O%	c #429337",
"P%	c #3F8434",
"Q%	c #397430",
"R%	c #2C5F25",
"S%	c #0A3D02",
"T%	c #093700",
"U%	c #084303",
"V%	c #396D35",
"W%	c #3F733A",
"X%	c #346F2D",
"Y%	c #2E7028",
"Z%	c #2C7524",
"`%	c #22721A",
" &	c #2C7A24",
".&	c #36852C",
"+&	c #35802B",
"@&	c #35792C",
"#&	c #37742F",
"$&	c #3B6E35",
"%&	c #3C6435",
"&&	c #2C5127",
"*&	c #0A2A02",
"=&	c #023500",
"-&	c #083C03",
";&	c #174B13",
">&	c #14500F",
",&	c #054B00",
"'&	c #0C5004",
")&	c #286221",
"!&	c #2F6227",
"~&	c #1A4A13",
"{&	c #093505",
"]&	c #032500",
"^&	c #071C00",
"/&	c #044B00",
"(&	c #054900",
"_&	c #054500",
":&	c #094300",
"<&	c #0A4400",
"[&	c #073A00",
"                                                                ",
"                                                                ",
"                        . + @ # $ % &                           ",
"                  * = - ; > , ' ) ! ~ { ] ^                     ",
"                    / ( ( _ _ _ : < [ } | 1 2 3                 ",
"                  4 5 5 6 _ 7 8 5 9 0 0 a a b c d               ",
"              e f g h i j k l m n o p q r s t s u v w           ",
"            x y z A B C D E F G s H I J J K K L M N O P         ",
"      Q   R S T U V W X Y Z `  ...+.@.#.$.%.&.*.=.-.;.>.        ",
"          ,.'.=.).!.~.{.].^./.(._.:.<.[.}.|.1.2.3.4.5.6.7.      ",
"    8.9.0.a.b.c.d.e.d.f.g.h.i.j.k.l.m.n.o.p.q.r.s.t.j.u.v.      ",
"    w.x.y.z.A.B.C.D.E.F.G.H.I.J.K.L.M.N.O.P.Q.Q.R.S.T.U.V.W.    ",
"  X.Y.Z.`. +.+++@+#+$+%+&+*+=+-+;+>+,+'+)+!+~+{+]+^+/+(+_+:+    ",
"  <+[+}+|+1+2+3+4+5+6+7+8+9+0+a+b+c+d+e+f+g+h+i+j+k+l+m+n+o+    ",
"  p+q+r+s+t+u+v+w+x+y+z+A+B+C+D+E+F+G+H+I+J+K+L+M+N+O+P+Q+R+    ",
"  S+T+U+V+W+X+Y+Z+`+ @.@+@@@#@$@%@&@*@=@-@;@>@,@'@)@N+!@~@{@]@  ",
"  ^@/@(@_@:@<@[@}@|@1@2@3@4@5@6@7@8@9@0@a@<@b@c@d@e@f@g@h@i@j@  ",
"  k@l@m@n@o@p@q@r@s@t@u@v@w@x@y@z@A@B@C@D@E@F@G@H@I@J@K@L@M@N@  ",
"  O@P@Q@R@S@T@U@V@W@X@Y@Z@`@ #.#+#@###$#%#&#*#=#-#;#>#,#'#)#!#  ",
"  ~#{#]#^#/#(#_#:#<#[#}#|#1#2#3#4#5#6#7#8#9#0#a#b#c#d#e#f#g#h#  ",
"  i#j#k#l#m#n#o#p#q#r#s#t#u#v#w#x#y#z#A#B#C#D#E#F#G#H#I#J#K#L#  ",
"    M#N#O#P#Q#R#S#T#U#V#W#X#Y#Z#`# $.$+$@$#$$$%$&$*$=$-$;$>$    ",
"    ,$'$)$!$~${$]$^$R#/$($_$:$<$[$}$|$1$2$3$4$5$6$7$8$9$0$a$    ",
"      b$c$d$e$f$g$h$i$j$k$l$m$n$o$p$q$r$s$t$u$v$w$x$y$z$A$      ",
"      B$C$D$E$F$G$H$I$J$K$L$M$N$O$P$Q$R$S$T$U$V$W$X$Y$Z$`$      ",
"         %.%+%@%#%$%%%&%*%=%-%;%>%%%,%'%)%!%~%{%]%^%/%(%        ",
"          _%:%<%[%}%|%1%2%2%3%4%5%6%7%8%9%0%a%b%c%d%e%f%        ",
"            g%h%i%j%k%l%m%n%o%p%q%r%s%t%u%v%w%x%y%z%A%          ",
"              B%C%D%E%F%G%H%I%J%K%L%M%N%O%P%Q%R%S%T%            ",
"                U%V%W%X%Y%Z%`% &.&+&@&#&$&%&&&*&                ",
"                    =&-&;&>&,&'&)&!&~&{&]&^&                    ",
"                          /&(&_&:&<&[&                          "};
